<svg xmlns="http://www.w3.org/2000/svg" enable-background="new 0 0 56.48 56.48" width="56" height="35" style=""><rect id="backgroundrect" width="100%" height="100%" x="0" y="0" fill="none" stroke="none" class="" style=""/><g class="currentLayer" style=""><title>Layer 1</title><path d="M9.046,17.144000000000005 c0,0.5640000000000006 0.2910000000000003,0.9460000000000006 0.792,0.9460000000000006 c0.3680000000000003,0 0.697000000000001,-0.22500000000000023 0.904,-0.5930000000000006 c0.258,-0.452 0.24400000000000016,-0.8760000000000007 0.24400000000000016,-1.385 v-0.2830000000000003 C10.043,15.829000000000008 9.046,16.032000000000007 9.046,17.144000000000005 zM40.879,14.024000000000008 c-0.14700000000000016,-0.468 -0.44000000000000034,-0.6480000000000008 -0.8560000000000006,-0.6480000000000008 c-0.9610000000000006,0 -1.023,1.312 -1.023,2.129 c0,0.8180000000000006 -0.01200000000000001,2.568 1.012,2.568 c1.013,0 1.062,-1.411 1.062,-2.271 C41.074,15.235000000000007 41.051,14.560000000000006 40.879,14.024000000000008 zM26.167,17.144000000000005 c0,0.5640000000000006 0.2940000000000003,0.9460000000000006 0.797,0.9460000000000006 c0.3640000000000003,0 0.695000000000001,-0.22500000000000023 0.901,-0.5930000000000006 c0.259,-0.452 0.24500000000000016,-0.8760000000000007 0.24500000000000016,-1.385 v-0.2830000000000003 C27.165,15.829000000000008 26.167,16.032000000000007 26.167,17.144000000000005 z" id="svg_1" class=""/><path d="M55.026,7.105427357601002e-15 H1.454 C0.6500000000000008,7.105427357601002e-15 0,0.6510000000000077 0,1.4540000000000077 v33.695 c0,0.803 0.6500000000000008,1.454 1.454,1.454 h53.572 c0.804,0 1.454,-0.6510000000000008 1.454,-1.454 V1.4540000000000077 C56.48,0.6510000000000077 55.83,7.105427357601002e-15 55.026,7.105427357601002e-15 zM27.95,13.668000000000006 c-0.15700000000000017,-0.24100000000000016 -0.463,-0.34000000000000047 -0.7310000000000006,-0.34000000000000047 c-0.49800000000000033,0 -0.9420000000000006,0.255 -1.05,0.784 c-0.02200000000000004,0.11800000000000012 -0.10900000000000008,0.233 -0.22800000000000023,0.23900000000000016 l-1.266,-0.136 c-0.10700000000000008,-0.02400000000000002 -0.22600000000000023,-0.11000000000000008 -0.19400000000000023,-0.274 c0.2900000000000003,-1.536 1.6790000000000007,-1.999 2.9210000000000003,-1.999 c0.6350000000000008,0 1.466,0.16800000000000026 1.967,0.6500000000000008 c0.6350000000000008,0.5940000000000006 0.5760000000000006,1.3860000000000001 0.5760000000000006,2.247 v2.036 c0,0.6120000000000007 0.252,0.8800000000000007 0.4900000000000003,1.211 c0.0840000000000001,0.11700000000000012 0.10200000000000002,0.259 -0.006000000000000012,0.3470000000000005 c-0.265,0.22200000000000022 -0.7390000000000007,0.6360000000000008 -1,0.8670000000000007 l-0.0020000000000000026,-0.003000000000000006 c-0.08600000000000012,0.07700000000000008 -0.21100000000000016,0.0830000000000001 -0.31000000000000033,0.03100000000000004 c-0.43400000000000033,-0.3600000000000003 -0.513,-0.527 -0.7490000000000007,-0.8710000000000007 c-0.7160000000000006,0.7300000000000006 -1.227,0.9490000000000006 -2.154,0.9490000000000006 c-1.1,0 -1.953,-0.6780000000000009 -1.953,-2.036 c0,-1.06 0.5720000000000006,-1.782 1.3920000000000001,-2.135 c0.7090000000000006,-0.31200000000000033 1.6990000000000007,-0.3670000000000003 2.456,-0.454 v-0.16800000000000026 C28.11,14.303000000000008 28.135,13.936000000000007 27.95,13.668000000000006 zM14.332,12.389000000000006 c0,-0.134 0.11300000000000009,-0.24100000000000016 0.252,-0.24100000000000016 h1.218 c0.127,0.005000000000000006 0.22900000000000023,0.10300000000000002 0.23700000000000004,0.22400000000000023 v0.8760000000000007 h0.02200000000000004 c0.3190000000000004,-0.8470000000000006 0.916,-1.242 1.721,-1.242 c0.8170000000000006,0 1.3290000000000002,0.39600000000000046 1.6950000000000007,1.242 c0.31700000000000034,-0.8470000000000006 1.035,-1.242 1.806,-1.242 c0.546,0 1.145,0.22600000000000023 1.5110000000000001,0.7330000000000007 c0.4130000000000003,0.5640000000000006 0.3290000000000004,1.383 0.3290000000000004,2.102 l-0.0020000000000000026,4.229 c0,0.135 -0.11200000000000009,0.24400000000000016 -0.251,0.24400000000000016 h-1.3050000000000002 c-0.13,-0.01000000000000001 -0.23500000000000001,-0.1150000000000001 -0.23500000000000001,-0.24400000000000016 v-3.553 c0,-0.2830000000000003 0.025000000000000033,-0.988 -0.03700000000000001,-1.2570000000000001 c-0.09700000000000017,-0.45 -0.3890000000000004,-0.5770000000000006 -0.7680000000000008,-0.5770000000000006 c-0.31600000000000034,0 -0.6470000000000008,0.21100000000000016 -0.781,0.549 c-0.133,0.33800000000000047 -0.12100000000000002,0.904 -0.12100000000000002,1.2850000000000001 v3.553 c0,0.135 -0.11100000000000008,0.24400000000000016 -0.252,0.24400000000000016 h-1.304 c-0.132,-0.01000000000000001 -0.23600000000000004,-0.1150000000000001 -0.23600000000000004,-0.24400000000000016 v-3.553 c0,-0.7480000000000007 0.12100000000000002,-1.848 -0.807,-1.848 c-0.9380000000000006,0 -0.9,1.073 -0.9,1.848 v3.553 c0,0.135 -0.11200000000000009,0.24400000000000016 -0.251,0.24400000000000016 h-1.307 c-0.125,-0.01000000000000001 -0.22600000000000023,-0.10400000000000002 -0.234,-0.22300000000000023 V12.389000000000006 zM12.304,19.297000000000008 c-0.08700000000000012,0.07700000000000008 -0.21100000000000016,0.0830000000000001 -0.30900000000000033,0.03100000000000004 c-0.43400000000000033,-0.3600000000000003 -0.512,-0.527 -0.7490000000000007,-0.8710000000000007 c-0.7170000000000006,0.7300000000000006 -1.225,0.9490000000000006 -2.154,0.9490000000000006 c-1.099,0 -1.955,-0.6780000000000009 -1.955,-2.036 c0,-1.06 0.5760000000000006,-1.782 1.393,-2.135 c0.7100000000000006,-0.31200000000000033 1.7000000000000002,-0.3670000000000003 2.456,-0.454 v-0.16800000000000026 c0,-0.31100000000000033 0.02400000000000002,-0.6780000000000009 -0.15700000000000017,-0.9460000000000006 c-0.16000000000000023,-0.24100000000000016 -0.465,-0.34000000000000047 -0.7320000000000007,-0.34000000000000047 c-0.49800000000000033,0 -0.9430000000000006,0.255 -1.051,0.784 c-0.02200000000000004,0.11800000000000012 -0.10900000000000008,0.233 -0.22600000000000023,0.23900000000000016 l-1.27,-0.136 c-0.10400000000000002,-0.02400000000000002 -0.22500000000000023,-0.11000000000000008 -0.19400000000000023,-0.274 c0.2930000000000003,-1.536 1.6790000000000007,-1.999 2.9210000000000003,-1.999 c0.6370000000000008,0 1.467,0.16800000000000026 1.969,0.6500000000000008 c0.6350000000000008,0.5940000000000006 0.5740000000000006,1.3860000000000001 0.5740000000000006,2.247 v2.036 c0,0.6120000000000007 0.253,0.8800000000000007 0.4920000000000003,1.211 c0.08500000000000012,0.11700000000000012 0.10300000000000002,0.259 -0.003000000000000006,0.3470000000000005 c-0.268,0.22200000000000022 -0.7410000000000007,0.6360000000000008 -1.001,0.8670000000000007 L12.304,19.297000000000008 zM33.32,21.889000000000006 c-2.452,1.8090000000000002 -6.006,2.771 -9.068,2.771 c-4.291,0 -8.153,-1.586 -11.076,-4.227 c-0.22900000000000023,-0.20800000000000016 -0.02400000000000002,-0.4900000000000003 0.251,-0.3290000000000004 c3.153,1.835 7.055,2.939 11.082,2.939 c2.7190000000000003,0 5.708,-0.5630000000000006 8.456,-1.729 C33.381,21.139000000000006 33.727,21.587000000000007 33.32,21.889000000000006 zM34.002,23.662000000000006 c-0.203,0.17 -0.39600000000000046,0.08000000000000008 -0.30700000000000033,-0.14500000000000016 c0.2970000000000003,-0.7380000000000007 0.9590000000000006,-2.394 0.6460000000000008,-2.7960000000000003 c-0.31300000000000033,-0.39900000000000047 -2.074,-0.18800000000000017 -2.863,-0.09600000000000017 c-0.24000000000000016,0.02800000000000002 -0.276,-0.18100000000000016 -0.06100000000000007,-0.3310000000000004 c1.401,-0.986 3.701,-0.7020000000000006 3.9690000000000003,-0.37100000000000033 C35.655,20.258000000000006 35.317,22.561000000000007 34.002,23.662000000000006 zM36.129,19.113000000000007 c-1.32,-0.692000000000001 -3.072,-0.7680000000000008 -4.533,0.00800000000000001 c-0.14900000000000016,0.08000000000000008 -0.30700000000000033,-0.0820000000000001 -0.30700000000000033,-0.22100000000000017 v-0.972 c0,-0.15600000000000017 0.0020000000000000026,-0.4220000000000003 0.15800000000000017,-0.6590000000000009 l2.5780000000000003,-3.696 h-2.243 c-0.14,0 -0.24800000000000016,-0.09800000000000017 -0.24800000000000016,-0.24100000000000016 v-0.9590000000000006 c0,-0.14600000000000016 0.10800000000000008,-0.24300000000000016 0.24100000000000016,-0.24300000000000016 h4.293 c0.139,0 0.24800000000000016,0.09900000000000017 0.24800000000000016,0.24300000000000016 v0.8210000000000006 c0,0.138 -0.11600000000000012,0.31700000000000034 -0.3220000000000004,0.6030000000000006 l-2.227,3.176 c0.8280000000000006,-0.021000000000000026 1.6990000000000007,0.10300000000000002 2.449,0.525 c0.17,0.09600000000000017 0.21500000000000016,0.23500000000000001 0.22900000000000023,0.37300000000000033 v1.023 h0.0010000000000000013 C36.446,19.035000000000007 36.292,19.19600000000001 36.129,19.113000000000007 zM40.012,19.454000000000008 c-1.9020000000000001,0 -2.938,-1.6660000000000008 -2.938,-3.739 c0,-2.086 1.05,-3.709 2.938,-3.709 c1.939,0 2.988,1.665 2.988,3.781 C43.002,17.832000000000008 41.842,19.454000000000008 40.012,19.454000000000008 zM49.09,19.313000000000006 h-1.31 c-0.11800000000000012,-0.009000000000000018 -0.22000000000000017,-0.09700000000000017 -0.231,-0.21100000000000016 V15.461000000000006 c0,-0.7330000000000007 0.08600000000000012,-1.806 -0.8150000000000006,-1.806 c-0.3190000000000004,0 -0.6100000000000007,0.21300000000000016 -0.7550000000000007,0.536 c-0.18700000000000017,0.4100000000000003 -0.20900000000000016,0.8170000000000006 -0.20900000000000016,1.27 v3.609 c-0.0020000000000000026,0.133 -0.1150000000000001,0.24200000000000016 -0.256,0.24200000000000016 h-1.299 c-0.133,-0.009000000000000018 -0.23600000000000004,-0.11300000000000009 -0.23600000000000004,-0.24200000000000016 l-0.0020000000000000026,-6.706 c0.011000000000000018,-0.12300000000000008 0.11900000000000012,-0.21900000000000017 0.252,-0.21900000000000017 h1.211 c0.11300000000000009,0.005000000000000006 0.20800000000000016,0.0830000000000001 0.234,0.18800000000000017 v1.027 h0.021000000000000026 c0.3650000000000003,-0.917 0.8790000000000007,-1.354 1.7810000000000001,-1.354 c0.5840000000000006,0 1.1560000000000001,0.21100000000000016 1.5230000000000001,0.79 c0.34200000000000047,0.537 0.34200000000000047,1.4380000000000002 0.34200000000000047,2.087 v4.22 h0.0020000000000000026 C49.326,19.220000000000006 49.221,19.313000000000006 49.09,19.313000000000006 z" id="svg_2" class=""/></g></svg>