<svg xmlns="http://www.w3.org/2000/svg" viewBox="0 0 58.4 58.4"><defs><style>.cls-1{fill:#494949;}.cls-2{fill:none;stroke:#494949;stroke-miterlimit:10;stroke-width:2.4px;}</style></defs><title>Shopping BagAsset 27</title><g id="Layer_2" data-name="Layer 2"><g id="Homepage_Long" data-name="Homepage Long"><path class="cls-1" d="M38.16,41.86a.86.86,0,0,1-.85.86H21.07a.86.86,0,0,1-.85-.86.85.85,0,0,1,.85-.85H37.31A.85.85,0,0,1,38.16,41.86Zm5.26,4A3.39,3.39,0,0,1,40.9,47H18.34a3.39,3.39,0,0,1-2.52-1.11,3.49,3.49,0,0,1-.9-2.61l2.31-25.42a.86.86,0,0,1,.85-.77h4.27V15.8a7.27,7.27,0,1,1,14.53,0v1.28h4.27a.87.87,0,0,1,.86.77l2.31,25.42A3.53,3.53,0,0,1,43.42,45.88ZM24.06,17.08H35.17V15.8a5.56,5.56,0,1,0-11.11,0ZM42.61,43.4,40.38,18.79h-3.5v3a.85.85,0,0,1-.85.85.86.86,0,0,1-.86-.85v-3H24.06v3a.85.85,0,0,1-.85.85.86.86,0,0,1-.86-.85v-3h-3.5L16.63,43.4a1.9,1.9,0,0,0,.43,1.32,1.53,1.53,0,0,0,1.28.56h22.6a1.82,1.82,0,0,0,1.28-.56A1.76,1.76,0,0,0,42.61,43.4Z"/><circle class="cls-2" cx="29.2" cy="29.2" r="28"/></g></g></svg>