<svg xmlns="http://www.w3.org/2000/svg" viewBox="0 0 232.84 234.96"><defs><style>.cls-1{fill:#010601;}.cls-2,.cls-5,.cls-6{fill:none;}.cls-2,.cls-3,.cls-5,.cls-6{stroke:#fff;}.cls-2{stroke-width:1.35px;}.cls-3{stroke-width:1.8px;}.cls-4{fill:#fff;fill-rule:evenodd;}.cls-5{stroke-width:0.37px;}.cls-6{stroke-width:0.37px;}</style></defs><title>SS Logo</title><g id="Layer_2" data-name="Layer 2"><g id="Homepage_Long" data-name="Homepage Long"><ellipse class="cls-1" cx="116.42" cy="111.78" rx="116.42" ry="111.78"/><ellipse class="cls-2" cx="116.42" cy="111.78" rx="110.11" ry="105.72"/><path class="cls-3" d="M51.39,181.74c21.53-2.86,43.09-5.18,64.62-5.33s43.09,1.81,64.64,4.23c0,5.43.09,10.85.13,16.28s.09,10.85.14,16.29c-21.55-5.26-43.07-9.57-64.64-9.55s-43.09,4.49-64.63,10.18c-.06-5.34-.12-10.68-.15-16S51.43,187.1,51.39,181.74Zm129.33,7.09q12.84,2.4,25.69,5.32c-2.14,2.57-4.24,5.1-6.37,7.52s-4.24,4.67-6.35,7c2.16,3.56,4.34,7.25,6.48,11s4.34,7.75,6.51,11.72q-17.16-7.26-34.26-12.65l8.94-5.16ZM60.27,219A319,319,0,0,0,26,233q3.16-6.1,6.35-12c2.1-3.85,4.23-7.6,6.37-11.2-2.17-2.19-4.36-4.35-6.5-6.63s-4.32-4.74-6.47-7.23q12.84-3.39,25.68-6.13l-.07,24.6Z"/><polygon points="62.59 219 62.59 212.1 53.23 214.4 62.59 219"/><polygon points="170.2 218.94 170.2 211.62 179.29 213.77 170.2 218.94"/><path class="cls-4" d="M67.84,87.72v.22c0,.66.55.87,1.12.87h.19c1,0,1.87-.29,1.87-1.53v-.66a1.2,1.2,0,0,0-1.31-1.09h-.56C68.35,85.53,67.84,86.66,67.84,87.72Z"/><path class="cls-5" d="M67.84,87.72v.22c0,.66.55.87,1.12.87h.19c1,0,1.87-.29,1.87-1.53v-.66a1.2,1.2,0,0,0-1.31-1.09h-.56C68.35,85.53,67.84,86.66,67.84,87.72Z"/><path class="cls-4" d="M132.9,106.88a22.14,22.14,0,0,0-4.85-1.09h-1.49c-1.73,0-4.56,1.86-5.79,2.62-1.93-.52-3.36-3.72-3.36-6.55v-1.31a25.37,25.37,0,0,1,4.16-12.62c1.63-2.26,5.68-7.05,8.9-7.05h2.06c1.15,0,3,1.47,3.59,2.36a8.86,8.86,0,0,1,1.26,5.07v1.75c0,2.57-2.28,8-3.4,9.56-1.5,2.06-4.28,4.86-7.42,4.86H126c-2.17,0-3.18-2.62-3.18-5.24,0-6.8,5.61-10.45,5.61-11.37V86.79h-.75c-1.73,0-5.42,6.28-5.42,8.52V96h-.37v3.5c0,2.33,1.83,5.67,3.92,5.67h1.68c5.2,0,10.64-9.65,10.64-16.38V87A7.53,7.53,0,0,0,131,79.57h-.94c-7.37,0-15.3,10.16-15.3,18.57l0,1.11.23,3.48c.82,1.44.49,2.33,1.73,3.89.85,1,1.56,2.07,2.94,2.45-.09,1.27-3.54,4.28-3.54,8.08v1.75c0,3.59,3.92,7.43,6.9,7.43h2.43a25.32,25.32,0,0,0,5.33-1.62,18.87,18.87,0,0,0,4.45-2.88,23,23,0,0,0,3.7-3.74c.66-.78,2.76-3.92,3.41-3.81l7.1,5.09-.1.19c1.12,0,3.7,2.32,4.94,3,.62.31,5.2,2.73,5.32,2.73h.57v.43c1.22,0,2.8.83,4.21,1.18a17.83,17.83,0,0,0,4.75.57h.18c5.7,0,10.45-4.82,10.45-11.14V114.1c0-1.83-1.79-5.4-2.74-6.4a9,9,0,0,0-6-2.78h-.76a6.83,6.83,0,0,0-5.6,7.42,4.94,4.94,0,0,0,1.5,3.51c-.2-.91-1.12-2.32-1.12-3.72,0-3.88,2.36-6.55,5.6-6.55h.75c4.16,0,7.65,4.64,7.65,9.82,0,7.26-4.46,8.56-4.85,9.84h-.56c-.53,0-.89.88-1.87.88h-4.67c-3,0-11.09-3.81-13.06-5.25-1.78-1.3-3.64-2.55-5.51-3.82-1.36-.92-4.4-3.48-5.84-4l1.27-1.84a63.82,63.82,0,0,1,5.33,3.81,39.57,39.57,0,0,0,5.44,3.68c2.88,1.78,8.79,5,12.93,5h1.87c3.69,0,7.09-3.62,7.09-7.86v-.45a4.34,4.34,0,0,0-1.12-3.27c.08,1,.56,1.2.56,2.84v.65c0,3.38-3.22,7-6.16,7h-3.54c-2.61,0-9.79-3.65-11.89-4.87a52.81,52.81,0,0,1-5.21-3.29c-.62-.49-4.68-3.28-5.16-3.45l4.71-9.36c0,1.59.4,2.41,1.68,2.41h.75c1.75,0,3.87-2.79,4.8-4,.72-.92,3-4.93,3-6.27v-2A2,2,0,0,0,157,89.62c-2.08,0-2.64,1.4-3.91,2.18,0-1.52-.72-2-2.06-2l.19.13-10.31,21.58-6.49-4.22c3.69-1,8.29-7.76,9.26-12.33.72-3.41.77-6.44,1.23-10.14.3-2.42,1.68-7.26,3.7-7.26h.55c2.18,0,1.88.92,2.8,1.32v.65a3.55,3.55,0,0,1-.18,1.09h-1.12a1.85,1.85,0,0,0-1.68,2v.43c0,.63.9,1.1,1.3,1.1a3,3,0,0,0,3-2.63V79.79c0-1.2-1.95-2.84-3.36-2.84H148.4c-2.36,0-4.94,3.38-5.46,5.63a41.44,41.44,0,0,0-1.06,4.66c-.26,1.93-.32,3.46-.69,5.31C139.74,99.74,137.4,103.36,132.9,106.88Zm17-3.93c-.31,0-.56-.13-.56-.43,0-3,1.27-4.67,2.2-6.6.59-1.22,2.54-5,3.78-5a2.45,2.45,0,0,1,.93.22v2.19c-.59.28-.84,2.19-1.12,2.84a25.1,25.1,0,0,1-1.42,2.71C153.15,99.83,150.86,103,149.89,103Zm-24.45,6.78H124c-1.06,0-1-.44-2.25-.44.22-.93,3.35-2.19,4.3-2.19l1.7-.11,3.53.77C130.17,108.83,127.44,109.73,125.44,109.73ZM124,125.46h-.38c-3,0-5.79-4.14-5.79-7.65v-2a9.06,9.06,0,0,1,3-5.88l3.92.63a22.15,22.15,0,0,0,4.28-.68,27.05,27.05,0,0,0,3.74-1.51c1.18,0,6.28,3.42,7.47,4.16-.28,1.45-5,7.75-6.12,8.78A14.11,14.11,0,0,1,124,125.46Z"/><path class="cls-5" d="M132.9,106.88a22.14,22.14,0,0,0-4.85-1.09h-1.49c-1.73,0-4.56,1.86-5.79,2.62-1.93-.52-3.36-3.72-3.36-6.55v-1.31a25.37,25.37,0,0,1,4.16-12.62c1.63-2.26,5.68-7.05,8.9-7.05h2.06c1.15,0,3,1.47,3.59,2.36a8.86,8.86,0,0,1,1.26,5.07v1.75c0,2.57-2.28,8-3.4,9.56-1.5,2.06-4.28,4.86-7.42,4.86H126c-2.17,0-3.18-2.62-3.18-5.24,0-6.8,5.61-10.45,5.61-11.37V86.79h-.75c-1.73,0-5.42,6.28-5.42,8.52V96h-.37v3.5c0,2.33,1.83,5.67,3.92,5.67h1.68c5.2,0,10.64-9.65,10.64-16.38V87A7.53,7.53,0,0,0,131,79.57h-.94c-7.37,0-15.3,10.16-15.3,18.57l0,1.11.23,3.48c.82,1.44.49,2.33,1.73,3.89.85,1,1.56,2.07,2.94,2.45-.09,1.27-3.54,4.28-3.54,8.08v1.75c0,3.59,3.92,7.43,6.9,7.43h2.43a25.32,25.32,0,0,0,5.33-1.62,18.87,18.87,0,0,0,4.45-2.88,23,23,0,0,0,3.7-3.74c.66-.78,2.76-3.92,3.41-3.81l7.1,5.09-.1.19c1.12,0,3.7,2.32,4.94,3,.62.31,5.2,2.73,5.32,2.73h.57v.43c1.22,0,2.8.83,4.21,1.18a17.83,17.83,0,0,0,4.75.57h.18c5.7,0,10.45-4.82,10.45-11.14V114.1c0-1.83-1.79-5.4-2.74-6.4a9,9,0,0,0-6-2.78h-.76a6.83,6.83,0,0,0-5.6,7.42,4.94,4.94,0,0,0,1.5,3.51c-.2-.91-1.12-2.32-1.12-3.72,0-3.88,2.36-6.55,5.6-6.55h.75c4.16,0,7.65,4.64,7.65,9.82,0,7.26-4.46,8.56-4.85,9.84h-.56c-.53,0-.89.88-1.87.88h-4.67c-3,0-11.09-3.81-13.06-5.25-1.78-1.3-3.64-2.55-5.51-3.82-1.36-.92-4.4-3.48-5.84-4l1.27-1.84a63.82,63.82,0,0,1,5.33,3.81,39.57,39.57,0,0,0,5.44,3.68c2.88,1.78,8.79,5,12.93,5h1.87c3.69,0,7.09-3.62,7.09-7.86v-.45a4.34,4.34,0,0,0-1.12-3.27c.08,1,.56,1.2.56,2.84v.65c0,3.38-3.22,7-6.16,7h-3.54c-2.61,0-9.79-3.65-11.89-4.87a52.81,52.81,0,0,1-5.21-3.29c-.62-.49-4.68-3.28-5.16-3.45l4.71-9.36c0,1.59.4,2.41,1.68,2.41h.75c1.75,0,3.87-2.79,4.8-4,.72-.92,3-4.93,3-6.27v-2A2,2,0,0,0,157,89.62c-2.08,0-2.64,1.4-3.91,2.18,0-1.52-.72-2-2.06-2l.19.13-10.31,21.58-6.49-4.22c3.69-1,8.29-7.76,9.26-12.33.72-3.41.77-6.44,1.23-10.14.3-2.42,1.68-7.26,3.7-7.26h.55c2.18,0,1.88.92,2.8,1.32v.65a3.55,3.55,0,0,1-.18,1.09h-1.12a1.85,1.85,0,0,0-1.68,2v.43c0,.63.9,1.1,1.3,1.1a3,3,0,0,0,3-2.63V79.79c0-1.2-1.95-2.84-3.36-2.84H148.4c-2.36,0-4.94,3.38-5.46,5.63a41.44,41.44,0,0,0-1.06,4.66c-.26,1.93-.32,3.46-.69,5.31C139.74,99.74,137.4,103.36,132.9,106.88Zm17-3.93c-.31,0-.56-.13-.56-.43,0-3,1.27-4.67,2.2-6.6.59-1.22,2.54-5,3.78-5a2.45,2.45,0,0,1,.93.22v2.19c-.59.28-.84,2.19-1.12,2.84a25.1,25.1,0,0,1-1.42,2.71C153.15,99.83,150.86,103,149.89,103Zm-24.45,6.78H124c-1.06,0-1-.44-2.25-.44.22-.93,3.35-2.19,4.3-2.19l1.7-.11,3.53.77C130.17,108.83,127.44,109.73,125.44,109.73ZM124,125.46h-.38c-3,0-5.79-4.14-5.79-7.65v-2a9.06,9.06,0,0,1,3-5.88l3.92.63a22.15,22.15,0,0,0,4.28-.68,27.05,27.05,0,0,0,3.74-1.51c1.18,0,6.28,3.42,7.47,4.16-.28,1.45-5,7.75-6.12,8.78A14.11,14.11,0,0,1,124,125.46Z"/><path class="cls-4" d="M44.69,107.31H42.45c-1.4,0-3.74-1.63-4.54-2.56-1.16-1.37-1.63-3.55-1.63-6.18v-2c0-6.76,7.63-18.14,13.45-18.14,4.11,0,6.53,2.38,6.53,7v.88c0,6.91-5.07,15.73-10.83,15.73-2.37,0-3.73-1.62-3.73-4.38v-.87c0-7.37,5.6-9.93,5.6-11.8,0-.5-.13-.66-.55-.66-2.63,0-6,7.22-6,10.93v1.09c0,3.1,1.5,6.34,4.11,6.34h1.3c5.14,0,10.64-9.1,10.64-15.51V83.93a8.59,8.59,0,0,0-2.46-5,7.79,7.79,0,0,0-5.19-1.79c-7.84,0-15.5,10-15.5,19.23v1.31c0,5.83,3.89,10.27,8.78,10.27h2.8c6.16,0,13.35-6.33,15.68-11.13A28.25,28.25,0,0,0,63.53,85c0-3.9,1.3-9.83,4.3-9.83H69a2.41,2.41,0,0,1,1.87,2.18c0,.51-.06.26-.19.88h-.56a2.19,2.19,0,0,0-2.42,2v.44c0,1,1.2,1.1,2,1.1,1,0,2.43-1.7,2.43-2.63V77.59c0-1.52-1.88-3-3.55-3H67.09c-3,0-5.23,4.54-5.9,7.73-.92,4.33-1.08,8.14-2.17,12.32-.7,2.7-3.66,6.54-5.42,8.29S47.58,107.31,44.69,107.31Z"/><path class="cls-5" d="M44.69,107.31H42.45c-1.4,0-3.74-1.63-4.54-2.56-1.16-1.37-1.63-3.55-1.63-6.18v-2c0-6.76,7.63-18.14,13.45-18.14,4.11,0,6.53,2.38,6.53,7v.88c0,6.91-5.07,15.73-10.83,15.73-2.37,0-3.73-1.62-3.73-4.38v-.87c0-7.37,5.6-9.93,5.6-11.8,0-.5-.13-.66-.55-.66-2.63,0-6,7.22-6,10.93v1.09c0,3.1,1.5,6.34,4.11,6.34h1.3c5.14,0,10.64-9.1,10.64-15.51V83.93a8.59,8.59,0,0,0-2.46-5,7.79,7.79,0,0,0-5.19-1.79c-7.84,0-15.5,10-15.5,19.23v1.31c0,5.83,3.89,10.27,8.78,10.27h2.8c6.16,0,13.35-6.33,15.68-11.13A28.25,28.25,0,0,0,63.53,85c0-3.9,1.3-9.83,4.3-9.83H69a2.41,2.41,0,0,1,1.87,2.18c0,.51-.06.26-.19.88h-.56a2.19,2.19,0,0,0-2.42,2v.44c0,1,1.2,1.1,2,1.1,1,0,2.43-1.7,2.43-2.63V77.59c0-1.52-1.88-3-3.55-3H67.09c-3,0-5.23,4.54-5.9,7.73-.92,4.33-1.08,8.14-2.17,12.32-.7,2.7-3.66,6.54-5.42,8.29S47.58,107.31,44.69,107.31Z"/><path class="cls-4" d="M65,102.6l-.6.35c0-2,4.67-9.36,4.67-11.15l-.1-1-.47-.71L67,89.84c1.62-.3-14.8,28.4,1.5,10.93,0,2.13-.23,3.28,1.67,3.28,2.63,0,3.88-2.92,5-3.28v.65c0,1.38.5,2.63,1.69,2.63h.74c1.23,0,1.45-.44,2.8-.44a13.32,13.32,0,0,1,2.24-1.76,13.17,13.17,0,0,0,2.1-2.12,10,10,0,0,0,2.57-6.17V92.25c0-1.4-.38-1.67-.38-3.06-.85-.67-1-2.45-2.24-2.85.12,1.53.75,1.46.75,3.06v1.1c0,4.71-4.38,12.8-8,12.89.07-3.34,4.67-9.43,4.67-11.59v-.65c0-.42-.76-1.31-1.12-1.31h-.56c-.56,0-3.11,6.35-3.6,7.36-.69,1.4-3.87,5.53-5.36,5.53h-.55c0-1.53,8.49-18.91,9.66-20.8,1.85-2.94,3.55-6.82,6-8.91a24.69,24.69,0,0,1,4.11-3.29,13.78,13.78,0,0,1,5.6-1.52h1.3c1.06,0,1,.44,2.24.44.25.43,1.46,1.29,2.11,2.12a7.16,7.16,0,0,1,1.25,3.34c.86,0,1.31-.54,1.31-1.53,0-2.73-4.41-5.25-7.09-5.25-9.21,0-15.22,7.87-19.3,14.12a80.46,80.46,0,0,0-6,11.38c-.74,1.72-1.92,4.34-2.81,5.89C68.91,99.5,65.7,102.6,65,102.6Z"/><path class="cls-5" d="M65,102.6l-.6.35c0-2,4.67-9.36,4.67-11.15l-.1-1-.47-.71L67,89.84c1.62-.3-14.8,28.4,1.5,10.93,0,2.13-.23,3.28,1.67,3.28,2.63,0,3.88-2.92,5-3.28v.65c0,1.38.5,2.63,1.69,2.63h.74c1.23,0,1.45-.44,2.8-.44a13.32,13.32,0,0,1,2.24-1.76,13.17,13.17,0,0,0,2.1-2.12,10,10,0,0,0,2.57-6.17V92.25c0-1.4-.38-1.67-.38-3.06-.85-.67-1-2.45-2.24-2.85.12,1.53.75,1.46.75,3.06v1.1c0,4.71-4.38,12.8-8,12.89.07-3.34,4.67-9.43,4.67-11.59v-.65c0-.42-.76-1.31-1.12-1.31h-.56c-.56,0-3.11,6.35-3.6,7.36-.69,1.4-3.87,5.53-5.36,5.53h-.55c0-1.53,8.49-18.91,9.66-20.8,1.85-2.94,3.55-6.82,6-8.91a24.69,24.69,0,0,1,4.11-3.29,13.78,13.78,0,0,1,5.6-1.52h1.3c1.06,0,1,.44,2.24.44.25.43,1.46,1.29,2.11,2.12a7.16,7.16,0,0,1,1.25,3.34c.86,0,1.31-.54,1.31-1.53,0-2.73-4.41-5.25-7.09-5.25-9.21,0-15.22,7.87-19.3,14.12a80.46,80.46,0,0,0-6,11.38c-.74,1.72-1.92,4.34-2.81,5.89C68.91,99.5,65.7,102.6,65,102.6Z"/><path class="cls-4" d="M158.48,101v.43c0,2,1.13,2.63,2.8,2.63l.56-.07,4.11.07c2.26,0,3.63-2.4,5-3.5,0,2.16.5,3.5,2.24,3.5h1.86a1.73,1.73,0,0,0,1.12-.44,4.89,4.89,0,0,0,1.68.44h.38c2,0,3.44-1.89,4.66-2.85v1.32c.37.64.63,1.3,1.49,1.3H185c0-1.21,2.34-5.23,2.92-6.41,1.34-2.71,1.72-3.68,3.85-5.55,4.38-3.84.93,1.89.48,3-.77,1.83-2.58,5.08-2.58,7v.21c0,1,.33,2,1.12,2h.75c2.19,0,7.49-6.46,7.65-8.74-.77.24-4,7.35-7.1,7.42.06-2.75,4.11-7.2,4.11-11.14v-.44c0-.86-.28,0-.37-1.31a2.45,2.45,0,0,0-.94-.22h-.18c-1.8,0-3.51,2.32-4.48,2.63v-.88c0-1-1-1.53-2.05-1.53a53.81,53.81,0,0,1-3.64,8c-1.62,2.48-2.73,4.9-6.44,4.9.44-.77,2.52-3,3.39-4.33a15,15,0,0,0,2-6.15V91.8a2.5,2.5,0,0,0-1.87-2.18h-1.68c-3.34,0-8.52,6.47-8.58,9.84-1.11.34-2.51,3.27-4.67,3.27h-.56c.08-1.08,4.86-5.85,4.86-9.61V91.8c0-1.7-1.15-2.18-2.62-2.18h-.56C163.75,89.62,158.48,96.63,158.48,101Zm2.61.43c0-1.63,2-5.52,2.69-6.68,1.11-1.81,2.25-4.24,4.78-4.24.32,4.58-1.42,5.9-2.8,9-1.72,0-2.8,1.11-2.8,3.27-.4.25-1.87,1.29-1.87,0Zm12.32.44c0-2.71,4.58-11.36,7.1-11.36.39,0,.24.08.74.22v1.53c0,1.68-1.49,4.58-2.16,5.77-1.14,2-.32.83-2.05,1.75a2.36,2.36,0,0,0-1.58,2.09V103c-.91.09-.68.44-1.49.44-.23,0-.56-.45-.56-.87Z"/><path class="cls-5" d="M158.48,101v.43c0,2,1.13,2.63,2.8,2.63l.56-.07,4.11.07c2.26,0,3.63-2.4,5-3.5,0,2.16.5,3.5,2.24,3.5h1.86a1.73,1.73,0,0,0,1.12-.44,4.89,4.89,0,0,0,1.68.44h.38c2,0,3.44-1.89,4.66-2.85v1.32c.37.64.63,1.3,1.49,1.3H185c0-1.21,2.34-5.23,2.92-6.41,1.34-2.71,1.72-3.68,3.85-5.55,4.38-3.84.93,1.89.48,3-.77,1.83-2.58,5.08-2.58,7v.21c0,1,.33,2,1.12,2h.75c2.19,0,7.49-6.46,7.65-8.74-.77.24-4,7.35-7.1,7.42.06-2.75,4.11-7.2,4.11-11.14v-.44c0-.86-.28,0-.37-1.31a2.45,2.45,0,0,0-.94-.22h-.18c-1.8,0-3.51,2.32-4.48,2.63v-.88c0-1-1-1.53-2.05-1.53a53.81,53.81,0,0,1-3.64,8c-1.62,2.48-2.73,4.9-6.44,4.9.44-.77,2.52-3,3.39-4.33a15,15,0,0,0,2-6.15V91.8a2.5,2.5,0,0,0-1.87-2.18h-1.68c-3.34,0-8.52,6.47-8.58,9.84-1.11.34-2.51,3.27-4.67,3.27h-.56c.08-1.08,4.86-5.85,4.86-9.61V91.8c0-1.7-1.15-2.18-2.62-2.18h-.56C163.75,89.62,158.48,96.63,158.48,101Zm2.61.43c0-1.63,2-5.52,2.69-6.68,1.11-1.81,2.25-4.24,4.78-4.24.32,4.58-1.42,5.9-2.8,9-1.72,0-2.8,1.11-2.8,3.27-.4.25-1.87,1.29-1.87,0Zm12.32.44c0-2.71,4.58-11.36,7.1-11.36.39,0,.24.08.74.22v1.53c0,1.68-1.49,4.58-2.16,5.77-1.14,2-.32.83-2.05,1.75a2.36,2.36,0,0,0-1.58,2.09V103c-.91.09-.68.44-1.49.44-.23,0-.56-.45-.56-.87Z"/><path class="cls-4" d="M102.48,89.62v.66c0,.76.37.33.37,1.09,0,1.07-3,6.41-3.68,7.27C97.89,100.3,95.5,103,93,103H91.84c-1.14,0-1.68-1-1.68-2.4v-.22a20,20,0,0,1,.37-2.19A19.33,19.33,0,0,0,96,96.51c.89-.44,3.45-2.88,3.45-4.05V91.8a2.31,2.31,0,0,0-2.43-2.18h-.55a7.81,7.81,0,0,0-5.84,3c-.89,1-3.13,4.4-3.13,6.17v.87c0,3.07,1.81,4.38,4.48,4.38H93c3.63,0,9.79-8.67,10.47-12a1.84,1.84,0,0,1,1.67,1.75c0,2.3-3,5.35-3,8.29v.23c0,.79.52,1.75,1.12,1.75h.94c1.79,0,6.93-6.55,7.09-8.74-.72.21-3.85,6.86-6.72,7.64.17-2.37,2.61-4.94,2.61-7v-.22c0-2.87-2.24-3.18-3.13-4.79l1.26-4.61h-.93C104.07,87.23,102.48,87.6,102.48,89.62ZM90.91,97.49c.38-1.68,3.83-7.21,5.6-7.21a.48.48,0,0,1,.37.44C96.88,93.77,93.36,97.25,90.91,97.49Z"/><path class="cls-5" d="M102.48,89.62v.66c0,.76.37.33.37,1.09,0,1.07-3,6.41-3.68,7.27C97.89,100.3,95.5,103,93,103H91.84c-1.14,0-1.68-1-1.68-2.4v-.22a20,20,0,0,1,.37-2.19A19.33,19.33,0,0,0,96,96.51c.89-.44,3.45-2.88,3.45-4.05V91.8a2.31,2.31,0,0,0-2.43-2.18h-.55a7.81,7.81,0,0,0-5.84,3c-.89,1-3.13,4.4-3.13,6.17v.87c0,3.07,1.81,4.38,4.48,4.38H93c3.63,0,9.79-8.67,10.47-12a1.84,1.84,0,0,1,1.67,1.75c0,2.3-3,5.35-3,8.29v.23c0,.79.52,1.75,1.12,1.75h.94c1.79,0,6.93-6.55,7.09-8.74-.72.21-3.85,6.86-6.72,7.64.17-2.37,2.61-4.94,2.61-7v-.22c0-2.87-2.24-3.18-3.13-4.79l1.26-4.61h-.93C104.07,87.23,102.48,87.6,102.48,89.62ZM90.91,97.49c.38-1.68,3.83-7.21,5.6-7.21a.48.48,0,0,1,.37.44C96.88,93.77,93.36,97.25,90.91,97.49Z"/><path class="cls-4" d="M166.5,115h8.78v-.65h-.94v-1.75c-.73-.32-.57-1.34-1.56-2.11-.7-.54-1.53-.64-1.61-1.83h-.74c-.14,1.93-3.18,1.55-3.18,5.47h-.75Z"/><path class="cls-5" d="M166.5,115h8.78v-.65h-.94v-1.75c-.73-.32-.57-1.34-1.56-2.11-.7-.54-1.53-.64-1.61-1.83h-.74c-.14,1.93-3.18,1.55-3.18,5.47h-.75Z"/><path class="cls-4" d="M125.21,137.69a.92.92,0,0,0-.55.28,2.67,2.67,0,0,0-.65,1,3.48,3.48,0,0,0-.23.92,11.42,11.42,0,0,0-.11,1.43,5.94,5.94,0,0,0,.43-.52l.5-.7c.17-.26.32-.52.46-.78a3.85,3.85,0,0,0,.33-.74,1.31,1.31,0,0,0,.09-.58A.36.36,0,0,0,125.21,137.69Zm-2,6.08a18.12,18.12,0,0,0-1,1.55,3.65,3.65,0,0,0-.42,1.53,1.21,1.21,0,0,0,.19.83.65.65,0,0,0,.51.25,1.47,1.47,0,0,0,.64-.16,2.32,2.32,0,0,0,.61-.47,13.76,13.76,0,0,1-.33-1.72C123.35,145,123.27,144.4,123.2,143.77Zm6.13,9.09a4.57,4.57,0,0,1-1.08-.13,4.31,4.31,0,0,1-1.52-.7,6.49,6.49,0,0,1-1.2-1.14,8.33,8.33,0,0,1-.9-1.4A10.72,10.72,0,0,1,124,148a3,3,0,0,1-1.19.56,4,4,0,0,1-1.4.12,2.17,2.17,0,0,1-1.16-.48,1.28,1.28,0,0,1-.43-1.15,2.86,2.86,0,0,1,.35-1.18,9.59,9.59,0,0,1,.81-1.39,16.6,16.6,0,0,1,1-1.35c.36-.44.68-.81,1-1.13a14.66,14.66,0,0,1,.06-2,4.67,4.67,0,0,1,.33-1.33,5.15,5.15,0,0,1,.57-.94,2.44,2.44,0,0,1,.6-.54,1.32,1.32,0,0,1,.59-.21,1.28,1.28,0,0,1,.5.08,1.51,1.51,0,0,1,.86.67,1.58,1.58,0,0,1,.17.94,3.45,3.45,0,0,1-.34,1.1,8.74,8.74,0,0,1-.67,1.17c-.26.38-.54.76-.83,1.13l-.81,1c0,.21,0,.49,0,.83s0,.68.09,1,.08.71.12,1,.1.59.15.8A7,7,0,0,0,125,146a11.27,11.27,0,0,0,.68-1.1,14.15,14.15,0,0,0,.65-1.48,18.79,18.79,0,0,0,.58-1.93.36.36,0,0,1,.25-.21,1,1,0,0,1,.42,0,.9.9,0,0,1,.37.12.22.22,0,0,1,.11.27,11.16,11.16,0,0,1-1.65,3.74,10.49,10.49,0,0,1-1,1.2l-.9.94a8.76,8.76,0,0,0,.87,2.09,4.06,4.06,0,0,0,1.28,1.35,3.65,3.65,0,0,0,1.81.51,6.74,6.74,0,0,0,2.39-.4c.11,0,.21,0,.29.14a1.44,1.44,0,0,1,.17.48,1.35,1.35,0,0,1,0,.53c0,.18-.11.28-.22.31A6.06,6.06,0,0,1,129.33,152.86Zm-18.62-4.55h0a3.88,3.88,0,0,1-.75.28,2.26,2.26,0,0,1-.61.11,1.6,1.6,0,0,1-1.1-.35,1.72,1.72,0,0,1-.51-.8,2,2,0,0,1,0-.94,1.21,1.21,0,0,1,.33-.71,2,2,0,0,1,.65-.47.89.89,0,0,1,.48-.08.55.55,0,0,1,.37.15.42.42,0,0,1,.17.33.5.5,0,0,1-.17.37.63.63,0,0,1-.39.15.49.49,0,0,1-.3-.1.47.47,0,0,1-.2-.24,1.35,1.35,0,0,0-.32.6,1.53,1.53,0,0,0,0,.67.93.93,0,0,0,.27.54,1,1,0,0,0,.62.25,1.16,1.16,0,0,0,.41-.13,2,2,0,0,0,.54-.42,2.63,2.63,0,0,0,.49-.75,3,3,0,0,0,.26-1.11,5.23,5.23,0,0,0-.14-1.51,9.36,9.36,0,0,0-.75-1.95l-.41.69c-.15.25-.28.48-.4.71a.3.3,0,0,1-.22.13.6.6,0,0,1-.23,0,.26.26,0,0,1-.15-.14.23.23,0,0,1,0-.21c.1-.19.19-.36.28-.5s.16-.3.24-.43.16-.27.24-.41l.23-.44a2.49,2.49,0,0,1-.31-.58,2.09,2.09,0,0,1-.1-.67,1.41,1.41,0,0,1,.06-.37,1.34,1.34,0,0,1,.22-.45,1.4,1.4,0,0,1,.41-.39,1.48,1.48,0,0,1,.7-.15,1,1,0,0,1,.66.18.65.65,0,0,1,.22.46,1.52,1.52,0,0,1-.12.63,4.09,4.09,0,0,1-.38.67l0,.11a9.27,9.27,0,0,1,1.11,1.43,6.41,6.41,0,0,1,.63,1.3,3.91,3.91,0,0,1,.25,1.15,3,3,0,0,1-.1,1,16.07,16.07,0,0,0,1.06-1.25,12.28,12.28,0,0,0,.77-1.17.28.28,0,0,1,.16-.16.31.31,0,0,1,.27,0,.32.32,0,0,1,.15.18.31.31,0,0,1,0,.22,9.86,9.86,0,0,1-1,1.54c-.38.48-.79.95-1.25,1.43a9.43,9.43,0,0,1-1,.9,5.4,5.4,0,0,1-1.18.67Zm-8.19-4.54a.23.23,0,0,1-.17.13.26.26,0,0,1-.21,0,.28.28,0,0,1-.16-.12.21.21,0,0,1,0-.23,4.71,4.71,0,0,1,.19-.45c.1-.21.19-.42.29-.65s.19-.45.29-.66a5.73,5.73,0,0,0,.2-.55,1.72,1.72,0,0,1-.71-.58,1.34,1.34,0,0,1,0-1.68,1,1,0,0,1,.86-.37.82.82,0,0,1,.62.28,1,1,0,0,1,.27.66c0,.14,0,.34,0,.59a4.17,4.17,0,0,1-.1.63.52.52,0,0,0,.24.09h.33a2,2,0,0,0,.62-.08,2.27,2.27,0,0,0,.38-.17l.33-.18a1,1,0,0,1,.42-.08,1.72,1.72,0,0,1,.72.17,1,1,0,0,1,.52.64,2,2,0,0,1-.06,1.18,9.32,9.32,0,0,1-.59,1.44c-.26.5-.54,1-.83,1.48s-.54.93-.73,1.31a2.94,2.94,0,0,0-.34.92c0,.22.09.33.37.31a1.28,1.28,0,0,0,.45-.27c.18-.17.39-.39.62-.65A9.8,9.8,0,0,0,107,146q.36-.48.69-1c.21-.33.4-.63.57-.92a5.66,5.66,0,0,0,.35-.72.28.28,0,0,1,.18-.16.49.49,0,0,1,.24,0,.3.3,0,0,1,.17.13.2.2,0,0,1,0,.22c-.1.18-.23.44-.42.77a10.4,10.4,0,0,1-.63,1.05c-.24.37-.51.75-.79,1.13a12.92,12.92,0,0,1-.89,1,6.26,6.26,0,0,1-.92.77,1.75,1.75,0,0,1-.89.3,1.12,1.12,0,0,1-.62-.14,1,1,0,0,1-.42-.43,1.77,1.77,0,0,1-.22-.66,3.93,3.93,0,0,1,0-.84,6.1,6.1,0,0,1,.34-1.39c.18-.48.38-1,.59-1.44s.42-.91.63-1.32a9.66,9.66,0,0,0,.45-1.05,3.13,3.13,0,0,1-.85.16,3,3,0,0,1-.94-.09l-.19.42-.3.67c-.1.24-.21.47-.32.7S102.59,143.65,102.52,143.77Zm-5.29.56q-.09.18-.15.33a5,5,0,0,0,2.8-2.16,2.22,2.22,0,0,0,.34-1c0-.29-.1-.45-.31-.45s-.73.27-1.21.86A11.17,11.17,0,0,0,97.23,144.33Zm5.24-1.06a.27.27,0,0,1,.11.37,12.94,12.94,0,0,1-.73,1.25,10.7,10.7,0,0,1-.95,1.29,11,11,0,0,1-1.11,1.15,6.09,6.09,0,0,1-1.23.86,4.17,4.17,0,0,1-1.29.43,2.45,2.45,0,0,1-1.31-.15,2,2,0,0,1-1-.77,2.6,2.6,0,0,1-.37-1.13,4,4,0,0,1,.11-1.27,7.81,7.81,0,0,1,.39-1.21,7.92,7.92,0,0,1,1-1.72,5.92,5.92,0,0,1,1.12-1.16,4.28,4.28,0,0,1,1.21-.67,3.82,3.82,0,0,1,1.27-.22,1.33,1.33,0,0,1,1,.31,1,1,0,0,1,.32.78,2.42,2.42,0,0,1-.29,1.06,4.52,4.52,0,0,1-.82,1.15,6.2,6.2,0,0,1-1.27,1,5.89,5.89,0,0,1-1.69.69,5.44,5.44,0,0,0-.17.86,3.5,3.5,0,0,0,0,.78,1.8,1.8,0,0,0,.17.58.57.57,0,0,0,.41.28,1.73,1.73,0,0,0,.85-.1,4.46,4.46,0,0,0,.93-.53,8.54,8.54,0,0,0,.93-.82,11.59,11.59,0,0,0,.86-1c.26-.35.5-.68.71-1a6.66,6.66,0,0,0,.49-1,.34.34,0,0,1,.19-.18A.35.35,0,0,1,102.47,143.27ZM86,147.84a1.8,1.8,0,0,1,.07-1,11.73,11.73,0,0,1,.52-1.55c.23-.6.5-1.24.81-1.93s.63-1.38,1-2.08.65-1.38,1-2.05.57-1.24.8-1.76.39-1,.5-1.3.13-.56.06-.62-.05-.15.11-.23a1.47,1.47,0,0,1,.61-.16,1.83,1.83,0,0,1,.74.16,1,1,0,0,1,.54.66,2.14,2.14,0,0,1-.11,1.09,16,16,0,0,1-.62,1.69c-.28.64-.6,1.32-1,2.05s-.73,1.47-1.09,2.18l.84-.62.94-.71.92-.74.8-.69a7.24,7.24,0,0,0,.56-.57.74.74,0,0,0,.22-.41c0-.11.08-.13.26-.09a1.27,1.27,0,0,1,.53.31,1.38,1.38,0,0,1,.4.61,1,1,0,0,1-.16.83,2.38,2.38,0,0,1-.67.68,6.41,6.41,0,0,1-1,.63,11.84,11.84,0,0,1-1.19.57l-1.21.49c.18.25.4.62.68,1.08s.57,1,.9,1.54.69,1.13,1.07,1.71a15.51,15.51,0,0,0,1.19,1.58,7.9,7.9,0,0,0,1.23,1.18,2.2,2.2,0,0,0,1.21.47c.11,0,.15.07.14.22a1,1,0,0,1-.25.5,2,2,0,0,1-.6.49,1.8,1.8,0,0,1-1,.21,2.3,2.3,0,0,1-1.51-.64A6.58,6.58,0,0,1,93,150.11a15.41,15.41,0,0,1-1-2c-.28-.72-.54-1.39-.77-2s-.44-1.17-.65-1.61-.39-.69-.6-.76l-.43.21-.32.18c-.26.51-.5,1-.72,1.45s-.41.88-.55,1.24a9.16,9.16,0,0,0-.33.94.71.71,0,0,0,0,.53q.06.14-.12.27a.84.84,0,0,1-.49.16,1.19,1.19,0,0,1-.6-.18A1.17,1.17,0,0,1,86,147.84Zm-3.43-6.17a.43.43,0,0,1,.08-.24.7.7,0,0,1,.21-.21.31.31,0,0,0-.29-.19.78.78,0,0,0-.55.2,3.63,3.63,0,0,0-.66.65,7.59,7.59,0,0,0-.72,1.05,15,15,0,0,0-.75,1.4,5.24,5.24,0,0,0-.39,1,4.83,4.83,0,0,0-.17,1.07,2.47,2.47,0,0,0,.11.89.71.71,0,0,0,.45.5.57.57,0,0,0,.52,0,2.12,2.12,0,0,0,.56-.47,7.89,7.89,0,0,0,.57-.76c.19-.3.39-.61.57-.94s.37-.66.54-1,.33-.63.49-.9.33-.72.49-1.05.3-.62.41-.87a4.89,4.89,0,0,0,.21-.67c0-.18,0-.31,0-.38s0-.14.11-.23a1.33,1.33,0,0,1,.6-.15,1.54,1.54,0,0,1,.74.15,1,1,0,0,1,.55.66,2,2,0,0,1,0,1.18,9.42,9.42,0,0,1-.6,1.44c-.26.5-.53,1-.83,1.48s-.54.93-.73,1.31a2.94,2.94,0,0,0-.34.92c0,.22.09.33.37.31a1.11,1.11,0,0,0,.44-.27,6.62,6.62,0,0,0,.63-.65c.22-.25.46-.54.71-.87s.47-.64.68-1,.39-.63.56-.92a4.76,4.76,0,0,0,.36-.72.27.27,0,0,1,.17-.16.49.49,0,0,1,.24,0,.27.27,0,0,1,.17.13.2.2,0,0,1,0,.22c-.09.18-.24.44-.41.77s-.39.68-.64,1.05-.5.75-.79,1.13a12.92,12.92,0,0,1-.89,1,5.78,5.78,0,0,1-.92.77,1.75,1.75,0,0,1-.89.3,1.07,1.07,0,0,1-1-.52,2.16,2.16,0,0,1-.25-1.4,10.1,10.1,0,0,1-.72.94,3.26,3.26,0,0,1-.82.68,2.43,2.43,0,0,1-.92.3,2.29,2.29,0,0,1-1.08-.19,2,2,0,0,1-1-.78,2.52,2.52,0,0,1-.37-1.12,4.27,4.27,0,0,1,.1-1.27,7.8,7.8,0,0,1,.4-1.21,8.34,8.34,0,0,1,1-1.74,5.53,5.53,0,0,1,1.12-1.18,3.8,3.8,0,0,1,1.21-.66,3.7,3.7,0,0,1,1.27-.19,4.46,4.46,0,0,1,.46.08,1.49,1.49,0,0,1,.45.19,1.18,1.18,0,0,1,.34.36,1,1,0,0,1,.15.56.63.63,0,0,1-.18.5.5.5,0,0,1-.38.15.59.59,0,0,1-.38-.14A.43.43,0,0,1,82.56,141.67Zm-18,6.12a1.89,1.89,0,0,1,.08-1.15,13.57,13.57,0,0,1,.63-1.65c.26-.6.56-1.22.89-1.85s.62-1.22.9-1.76a13.46,13.46,0,0,0,.6-1.37c.14-.38.16-.61.06-.7s-.05-.1,0-.16a1,1,0,0,1,.36-.15,2.52,2.52,0,0,1,.52-.07,1.78,1.78,0,0,1,.57,0,1,1,0,0,1,.46.24.82.82,0,0,1,.24.52,3.37,3.37,0,0,1-.17,1.37,10.64,10.64,0,0,1-.65,1.5c-.27.52-.56,1-.88,1.56s-.61,1-.88,1.52a14.53,14.53,0,0,0-.68,1.38,2.64,2.64,0,0,0-.23,1.15c0,.1-.08.2-.23.29a.92.92,0,0,1-.53.15,1.28,1.28,0,0,1-.63-.19A1.11,1.11,0,0,1,64.6,147.79Zm-.77,6.2a1.08,1.08,0,0,0,0,.77.84.84,0,0,0,.44.43,2,2,0,0,0,.73.16,4.49,4.49,0,0,0,.89-.06,8.82,8.82,0,0,0,.89-.2,8.07,8.07,0,0,0,.8-.29,8.76,8.76,0,0,0,2.16-1.25,7.81,7.81,0,0,0,.75-.68,4.73,4.73,0,0,0,.65-.86,3.51,3.51,0,0,0,.43-1,3.29,3.29,0,0,0,.07-1.22,5.74,5.74,0,0,0-.21-1.05c-.49.2-1,.4-1.41.61s-.88.43-1.3.66c-.67.35-1.31.7-1.88,1.07a14.79,14.79,0,0,0-1.5,1.05A4.43,4.43,0,0,0,63.83,154Zm14.62-7.85a.29.29,0,0,1-.06.25.39.39,0,0,1-.23.15c-.66.14-1.32.31-2,.51s-1.35.4-2,.62l0,0a5.39,5.39,0,0,1,.58,1.9,4.19,4.19,0,0,1-.68,2.78,7.26,7.26,0,0,1-2.58,2.31,12.21,12.21,0,0,1-2.07.91,11.45,11.45,0,0,1-2.23.53,8.31,8.31,0,0,1-1.27.1h-.34l-.31,0a3.13,3.13,0,0,1-1.42-.45,1.65,1.65,0,0,1-.74-1,1.9,1.9,0,0,1,0-.9,3.24,3.24,0,0,1,.81-1.32,9.35,9.35,0,0,1,1.39-1.25A16,16,0,0,1,67,150.21c.56-.32,1.06-.61,1.5-.84.86-.45,1.78-.88,2.76-1.28-.07-.15-.14-.28-.22-.42a3.11,3.11,0,0,0-.25-.38,5.52,5.52,0,0,1-.8.07c-.25,0-.51,0-.77,0a1.58,1.58,0,0,1-1-.45A1,1,0,0,1,68,146a1.33,1.33,0,0,1,.25-.56,1.62,1.62,0,0,1,.55-.48l0,0a2.63,2.63,0,0,1,1.34-.31,3.44,3.44,0,0,1,1.69.49,6.78,6.78,0,0,0,1.48-1.59,6.1,6.1,0,0,0,.38-.68A4.53,4.53,0,0,0,74,142a4.09,4.09,0,0,0,.13-.93,3.48,3.48,0,0,0-.16-1,3.93,3.93,0,0,0-1-1.72,4,4,0,0,0-1.53-1,4.77,4.77,0,0,0-1.86-.33,6.06,6.06,0,0,0-2,.39,5.63,5.63,0,0,0-1.7,1,6.72,6.72,0,0,0-1.23,1.4,7.29,7.29,0,0,0-.79,1.58,6.38,6.38,0,0,0-.35,1.57,4.15,4.15,0,0,0,.09,1.34,1.64,1.64,0,0,0,.51.89.23.23,0,0,1,.08.26.73.73,0,0,1-.2.26,2.13,2.13,0,0,1-.4.2,1.5,1.5,0,0,1-.52.09,1.43,1.43,0,0,1-.53-.08,1,1,0,0,1-.47-.34,3,3,0,0,1-.72-1.63,4.53,4.53,0,0,1,.23-1.84,6.72,6.72,0,0,1,.95-1.84,8,8,0,0,1,1.46-1.6,8.32,8.32,0,0,1,1.64-1.12,12.33,12.33,0,0,1,1.75-.77,10.33,10.33,0,0,1,1.75-.4,10.88,10.88,0,0,1,1.8-.11,10.08,10.08,0,0,1,1.76.21,8.13,8.13,0,0,1,1.58.52A5.26,5.26,0,0,1,76,138.18a4.08,4.08,0,0,1,1,1.68,4.38,4.38,0,0,1-.09,2.65,7.89,7.89,0,0,1-2.45,3.21,9,9,0,0,1-1.1.71,3.92,3.92,0,0,1,.25.32,1.33,1.33,0,0,1,.22.34c1.43-.48,2.85-.87,4.24-1.2a.34.34,0,0,1,.26,0A.31.31,0,0,1,78.45,146.14Z"/><path class="cls-6" d="M125.21,137.69a.92.92,0,0,0-.55.28,2.67,2.67,0,0,0-.65,1,3.48,3.48,0,0,0-.23.92,11.42,11.42,0,0,0-.11,1.43,5.94,5.94,0,0,0,.43-.52l.5-.7c.17-.26.32-.52.46-.78a3.85,3.85,0,0,0,.33-.74,1.31,1.31,0,0,0,.09-.58A.36.36,0,0,0,125.21,137.69Zm-2,6.08a18.12,18.12,0,0,0-1,1.55,3.65,3.65,0,0,0-.42,1.53,1.21,1.21,0,0,0,.19.83.65.65,0,0,0,.51.25,1.47,1.47,0,0,0,.64-.16,2.32,2.32,0,0,0,.61-.47,13.76,13.76,0,0,1-.33-1.72C123.35,145,123.27,144.4,123.2,143.77Zm6.13,9.09a4.57,4.57,0,0,1-1.08-.13,4.31,4.31,0,0,1-1.52-.7,6.49,6.49,0,0,1-1.2-1.14,8.33,8.33,0,0,1-.9-1.4A10.72,10.72,0,0,1,124,148a3,3,0,0,1-1.19.56,4,4,0,0,1-1.4.12,2.17,2.17,0,0,1-1.16-.48,1.28,1.28,0,0,1-.43-1.15,2.86,2.86,0,0,1,.35-1.18,9.59,9.59,0,0,1,.81-1.39,16.6,16.6,0,0,1,1-1.35c.36-.44.68-.81,1-1.13a14.66,14.66,0,0,1,.06-2,4.67,4.67,0,0,1,.33-1.33,5.15,5.15,0,0,1,.57-.94,2.44,2.44,0,0,1,.6-.54,1.32,1.32,0,0,1,.59-.21,1.28,1.28,0,0,1,.5.08,1.51,1.51,0,0,1,.86.67,1.58,1.58,0,0,1,.17.94,3.45,3.45,0,0,1-.34,1.1,8.74,8.74,0,0,1-.67,1.17c-.26.38-.54.76-.83,1.13l-.81,1c0,.21,0,.49,0,.83s0,.68.09,1,.08.71.12,1,.1.59.15.8A7,7,0,0,0,125,146a11.27,11.27,0,0,0,.68-1.1,14.15,14.15,0,0,0,.65-1.48,18.79,18.79,0,0,0,.58-1.93.36.36,0,0,1,.25-.21,1,1,0,0,1,.42,0,.9.9,0,0,1,.37.12.22.22,0,0,1,.11.27,11.16,11.16,0,0,1-1.65,3.74,10.49,10.49,0,0,1-1,1.2l-.9.94a8.76,8.76,0,0,0,.87,2.09,4.06,4.06,0,0,0,1.28,1.35,3.65,3.65,0,0,0,1.81.51,6.74,6.74,0,0,0,2.39-.4c.11,0,.21,0,.29.14a1.44,1.44,0,0,1,.17.48,1.35,1.35,0,0,1,0,.53c0,.18-.11.28-.22.31A6.06,6.06,0,0,1,129.33,152.86Zm-18.62-4.55h0a3.88,3.88,0,0,1-.75.28,2.26,2.26,0,0,1-.61.11,1.6,1.6,0,0,1-1.1-.35,1.72,1.72,0,0,1-.51-.8,2,2,0,0,1,0-.94,1.21,1.21,0,0,1,.33-.71,2,2,0,0,1,.65-.47.89.89,0,0,1,.48-.08.55.55,0,0,1,.37.15.42.42,0,0,1,.17.33.5.5,0,0,1-.17.37.63.63,0,0,1-.39.15.49.49,0,0,1-.3-.1.47.47,0,0,1-.2-.24,1.35,1.35,0,0,0-.32.6,1.53,1.53,0,0,0,0,.67.93.93,0,0,0,.27.54,1,1,0,0,0,.62.25,1.16,1.16,0,0,0,.41-.13,2,2,0,0,0,.54-.42,2.63,2.63,0,0,0,.49-.75,3,3,0,0,0,.26-1.11,5.23,5.23,0,0,0-.14-1.51,9.36,9.36,0,0,0-.75-1.95l-.41.69c-.15.25-.28.48-.4.71a.3.3,0,0,1-.22.13.6.6,0,0,1-.23,0,.26.26,0,0,1-.15-.14.23.23,0,0,1,0-.21c.1-.19.19-.36.28-.5s.16-.3.24-.43.16-.27.24-.41l.23-.44a2.49,2.49,0,0,1-.31-.58,2.09,2.09,0,0,1-.1-.67,1.41,1.41,0,0,1,.06-.37,1.34,1.34,0,0,1,.22-.45,1.4,1.4,0,0,1,.41-.39,1.48,1.48,0,0,1,.7-.15,1,1,0,0,1,.66.18.65.65,0,0,1,.22.46,1.52,1.52,0,0,1-.12.63,4.09,4.09,0,0,1-.38.67l0,.11a9.27,9.27,0,0,1,1.11,1.43,6.41,6.41,0,0,1,.63,1.3,3.91,3.91,0,0,1,.25,1.15,3,3,0,0,1-.1,1,16.07,16.07,0,0,0,1.06-1.25,12.28,12.28,0,0,0,.77-1.17.28.28,0,0,1,.16-.16.31.31,0,0,1,.27,0,.32.32,0,0,1,.15.18.31.31,0,0,1,0,.22,9.86,9.86,0,0,1-1,1.54c-.38.48-.79.95-1.25,1.43a9.43,9.43,0,0,1-1,.9,5.4,5.4,0,0,1-1.18.67Zm-8.19-4.54a.23.23,0,0,1-.17.13.26.26,0,0,1-.21,0,.28.28,0,0,1-.16-.12.21.21,0,0,1,0-.23,4.71,4.71,0,0,1,.19-.45c.1-.21.19-.42.29-.65s.19-.45.29-.66a5.73,5.73,0,0,0,.2-.55,1.72,1.72,0,0,1-.71-.58,1.34,1.34,0,0,1,0-1.68,1,1,0,0,1,.86-.37.82.82,0,0,1,.62.28,1,1,0,0,1,.27.66c0,.14,0,.34,0,.59a4.17,4.17,0,0,1-.1.63.52.52,0,0,0,.24.09h.33a2,2,0,0,0,.62-.08,2.27,2.27,0,0,0,.38-.17l.33-.18a1,1,0,0,1,.42-.08,1.72,1.72,0,0,1,.72.17,1,1,0,0,1,.52.64,2,2,0,0,1-.06,1.18,9.32,9.32,0,0,1-.59,1.44c-.26.5-.54,1-.83,1.48s-.54.93-.73,1.31a2.94,2.94,0,0,0-.34.92c0,.22.09.33.37.31a1.28,1.28,0,0,0,.45-.27c.18-.17.39-.39.62-.65A9.8,9.8,0,0,0,107,146q.36-.48.69-1c.21-.33.4-.63.57-.92a5.66,5.66,0,0,0,.35-.72.28.28,0,0,1,.18-.16.49.49,0,0,1,.24,0,.3.3,0,0,1,.17.13.2.2,0,0,1,0,.22c-.1.18-.23.44-.42.77a10.4,10.4,0,0,1-.63,1.05c-.24.37-.51.75-.79,1.13a12.92,12.92,0,0,1-.89,1,6.26,6.26,0,0,1-.92.77,1.75,1.75,0,0,1-.89.3,1.12,1.12,0,0,1-.62-.14,1,1,0,0,1-.42-.43,1.77,1.77,0,0,1-.22-.66,3.93,3.93,0,0,1,0-.84,6.1,6.1,0,0,1,.34-1.39c.18-.48.38-1,.59-1.44s.42-.91.63-1.32a9.66,9.66,0,0,0,.45-1.05,3.13,3.13,0,0,1-.85.16,3,3,0,0,1-.94-.09l-.19.42-.3.67c-.1.24-.21.47-.32.7S102.59,143.65,102.52,143.77Zm-5.29.56q-.09.18-.15.33a5,5,0,0,0,2.8-2.16,2.22,2.22,0,0,0,.34-1c0-.29-.1-.45-.31-.45s-.73.27-1.21.86A11.17,11.17,0,0,0,97.23,144.33Zm5.24-1.06a.27.27,0,0,1,.11.37,12.94,12.94,0,0,1-.73,1.25,10.7,10.7,0,0,1-.95,1.29,11,11,0,0,1-1.11,1.15,6.09,6.09,0,0,1-1.23.86,4.17,4.17,0,0,1-1.29.43,2.45,2.45,0,0,1-1.31-.15,2,2,0,0,1-1-.77,2.6,2.6,0,0,1-.37-1.13,4,4,0,0,1,.11-1.27,7.81,7.81,0,0,1,.39-1.21,7.92,7.92,0,0,1,1-1.72,5.92,5.92,0,0,1,1.12-1.16,4.28,4.28,0,0,1,1.21-.67,3.82,3.82,0,0,1,1.27-.22,1.33,1.33,0,0,1,1,.31,1,1,0,0,1,.32.78,2.42,2.42,0,0,1-.29,1.06,4.52,4.52,0,0,1-.82,1.15,6.2,6.2,0,0,1-1.27,1,5.89,5.89,0,0,1-1.69.69,5.44,5.44,0,0,0-.17.86,3.5,3.5,0,0,0,0,.78,1.8,1.8,0,0,0,.17.58.57.57,0,0,0,.41.28,1.73,1.73,0,0,0,.85-.1,4.46,4.46,0,0,0,.93-.53,8.54,8.54,0,0,0,.93-.82,11.59,11.59,0,0,0,.86-1c.26-.35.5-.68.71-1a6.66,6.66,0,0,0,.49-1,.34.34,0,0,1,.19-.18A.35.35,0,0,1,102.47,143.27ZM86,147.84a1.8,1.8,0,0,1,.07-1,11.73,11.73,0,0,1,.52-1.55c.23-.6.5-1.24.81-1.93s.63-1.38,1-2.08.65-1.38,1-2.05.57-1.24.8-1.76.39-1,.5-1.3.13-.56.06-.62-.05-.15.11-.23a1.47,1.47,0,0,1,.61-.16,1.83,1.83,0,0,1,.74.16,1,1,0,0,1,.54.66,2.14,2.14,0,0,1-.11,1.09,16,16,0,0,1-.62,1.69c-.28.64-.6,1.32-1,2.05s-.73,1.47-1.09,2.18l.84-.62.94-.71.92-.74.8-.69a7.24,7.24,0,0,0,.56-.57.74.74,0,0,0,.22-.41c0-.11.08-.13.26-.09a1.27,1.27,0,0,1,.53.31,1.38,1.38,0,0,1,.4.61,1,1,0,0,1-.16.83,2.38,2.38,0,0,1-.67.68,6.41,6.41,0,0,1-1,.63,11.84,11.84,0,0,1-1.19.57l-1.21.49c.18.25.4.62.68,1.08s.57,1,.9,1.54.69,1.13,1.07,1.71a15.51,15.51,0,0,0,1.19,1.58,7.9,7.9,0,0,0,1.23,1.18,2.2,2.2,0,0,0,1.21.47c.11,0,.15.07.14.22a1,1,0,0,1-.25.5,2,2,0,0,1-.6.49,1.8,1.8,0,0,1-1,.21,2.3,2.3,0,0,1-1.51-.64A6.58,6.58,0,0,1,93,150.11a15.41,15.41,0,0,1-1-2c-.28-.72-.54-1.39-.77-2s-.44-1.17-.65-1.61-.39-.69-.6-.76l-.43.21-.32.18c-.26.51-.5,1-.72,1.45s-.41.88-.55,1.24a9.16,9.16,0,0,0-.33.94.71.71,0,0,0,0,.53q.06.14-.12.27a.84.84,0,0,1-.49.16,1.19,1.19,0,0,1-.6-.18A1.17,1.17,0,0,1,86,147.84Zm-3.43-6.17a.43.43,0,0,1,.08-.24.7.7,0,0,1,.21-.21.31.31,0,0,0-.29-.19.78.78,0,0,0-.55.2,3.63,3.63,0,0,0-.66.65,7.59,7.59,0,0,0-.72,1.05,15,15,0,0,0-.75,1.4,5.24,5.24,0,0,0-.39,1,4.83,4.83,0,0,0-.17,1.07,2.47,2.47,0,0,0,.11.89.71.71,0,0,0,.45.5.57.57,0,0,0,.52,0,2.12,2.12,0,0,0,.56-.47,7.89,7.89,0,0,0,.57-.76c.19-.3.39-.61.57-.94s.37-.66.54-1,.33-.63.49-.9.33-.72.49-1.05.3-.62.41-.87a4.89,4.89,0,0,0,.21-.67c0-.18,0-.31,0-.38s0-.14.11-.23a1.33,1.33,0,0,1,.6-.15,1.54,1.54,0,0,1,.74.15,1,1,0,0,1,.55.66,2,2,0,0,1,0,1.18,9.42,9.42,0,0,1-.6,1.44c-.26.5-.53,1-.83,1.48s-.54.93-.73,1.31a2.94,2.94,0,0,0-.34.92c0,.22.09.33.37.31a1.11,1.11,0,0,0,.44-.27,6.62,6.62,0,0,0,.63-.65c.22-.25.46-.54.71-.87s.47-.64.68-1,.39-.63.56-.92a4.76,4.76,0,0,0,.36-.72.27.27,0,0,1,.17-.16.49.49,0,0,1,.24,0,.27.27,0,0,1,.17.13.2.2,0,0,1,0,.22c-.09.18-.24.44-.41.77s-.39.68-.64,1.05-.5.75-.79,1.13a12.92,12.92,0,0,1-.89,1,5.78,5.78,0,0,1-.92.77,1.75,1.75,0,0,1-.89.3,1.07,1.07,0,0,1-1-.52,2.16,2.16,0,0,1-.25-1.4,10.1,10.1,0,0,1-.72.94,3.26,3.26,0,0,1-.82.68,2.43,2.43,0,0,1-.92.3,2.29,2.29,0,0,1-1.08-.19,2,2,0,0,1-1-.78,2.52,2.52,0,0,1-.37-1.12,4.27,4.27,0,0,1,.1-1.27,7.8,7.8,0,0,1,.4-1.21,8.34,8.34,0,0,1,1-1.74,5.53,5.53,0,0,1,1.12-1.18,3.8,3.8,0,0,1,1.21-.66,3.7,3.7,0,0,1,1.27-.19,4.46,4.46,0,0,1,.46.08,1.49,1.49,0,0,1,.45.19,1.18,1.18,0,0,1,.34.36,1,1,0,0,1,.15.56.63.63,0,0,1-.18.5.5.5,0,0,1-.38.15.59.59,0,0,1-.38-.14A.43.43,0,0,1,82.56,141.67Zm-18,6.12a1.89,1.89,0,0,1,.08-1.15,13.57,13.57,0,0,1,.63-1.65c.26-.6.56-1.22.89-1.85s.62-1.22.9-1.76a13.46,13.46,0,0,0,.6-1.37c.14-.38.16-.61.06-.7s-.05-.1,0-.16a1,1,0,0,1,.36-.15,2.52,2.52,0,0,1,.52-.07,1.78,1.78,0,0,1,.57,0,1,1,0,0,1,.46.24.82.82,0,0,1,.24.52,3.37,3.37,0,0,1-.17,1.37,10.64,10.64,0,0,1-.65,1.5c-.27.52-.56,1-.88,1.56s-.61,1-.88,1.52a14.53,14.53,0,0,0-.68,1.38,2.64,2.64,0,0,0-.23,1.15c0,.1-.08.2-.23.29a.92.92,0,0,1-.53.15,1.28,1.28,0,0,1-.63-.19A1.11,1.11,0,0,1,64.6,147.79Zm-.77,6.2a1.08,1.08,0,0,0,0,.77.84.84,0,0,0,.44.43,2,2,0,0,0,.73.16,4.49,4.49,0,0,0,.89-.06,8.82,8.82,0,0,0,.89-.2,8.07,8.07,0,0,0,.8-.29,8.76,8.76,0,0,0,2.16-1.25,7.81,7.81,0,0,0,.75-.68,4.73,4.73,0,0,0,.65-.86,3.51,3.51,0,0,0,.43-1,3.29,3.29,0,0,0,.07-1.22,5.74,5.74,0,0,0-.21-1.05c-.49.2-1,.4-1.41.61s-.88.43-1.3.66c-.67.35-1.31.7-1.88,1.07a14.79,14.79,0,0,0-1.5,1.05A4.43,4.43,0,0,0,63.83,154Zm14.62-7.85a.29.29,0,0,1-.06.25.39.39,0,0,1-.23.15c-.66.14-1.32.31-2,.51s-1.35.4-2,.62l0,0a5.39,5.39,0,0,1,.58,1.9,4.19,4.19,0,0,1-.68,2.78,7.26,7.26,0,0,1-2.58,2.31,12.21,12.21,0,0,1-2.07.91,11.45,11.45,0,0,1-2.23.53,8.31,8.31,0,0,1-1.27.1h-.34l-.31,0a3.13,3.13,0,0,1-1.42-.45,1.65,1.65,0,0,1-.74-1,1.9,1.9,0,0,1,0-.9,3.24,3.24,0,0,1,.81-1.32,9.35,9.35,0,0,1,1.39-1.25A16,16,0,0,1,67,150.21c.56-.32,1.06-.61,1.5-.84.86-.45,1.78-.88,2.76-1.28-.07-.15-.14-.28-.22-.42a3.11,3.11,0,0,0-.25-.38,5.52,5.52,0,0,1-.8.07c-.25,0-.51,0-.77,0a1.58,1.58,0,0,1-1-.45A1,1,0,0,1,68,146a1.33,1.33,0,0,1,.25-.56,1.62,1.62,0,0,1,.55-.48l0,0a2.63,2.63,0,0,1,1.34-.31,3.44,3.44,0,0,1,1.69.49,6.78,6.78,0,0,0,1.48-1.59,6.1,6.1,0,0,0,.38-.68A4.53,4.53,0,0,0,74,142a4.09,4.09,0,0,0,.13-.93,3.48,3.48,0,0,0-.16-1,3.93,3.93,0,0,0-1-1.72,4,4,0,0,0-1.53-1,4.77,4.77,0,0,0-1.86-.33,6.06,6.06,0,0,0-2,.39,5.63,5.63,0,0,0-1.7,1,6.72,6.72,0,0,0-1.23,1.4,7.29,7.29,0,0,0-.79,1.58,6.38,6.38,0,0,0-.35,1.57,4.15,4.15,0,0,0,.09,1.34,1.64,1.64,0,0,0,.51.89.23.23,0,0,1,.08.26.73.73,0,0,1-.2.26,2.13,2.13,0,0,1-.4.2,1.5,1.5,0,0,1-.52.09,1.43,1.43,0,0,1-.53-.08,1,1,0,0,1-.47-.34,3,3,0,0,1-.72-1.63,4.53,4.53,0,0,1,.23-1.84,6.72,6.72,0,0,1,.95-1.84,8,8,0,0,1,1.46-1.6,8.32,8.32,0,0,1,1.64-1.12,12.33,12.33,0,0,1,1.75-.77,10.33,10.33,0,0,1,1.75-.4,10.88,10.88,0,0,1,1.8-.11,10.08,10.08,0,0,1,1.76.21,8.13,8.13,0,0,1,1.58.52A5.26,5.26,0,0,1,76,138.18a4.08,4.08,0,0,1,1,1.68,4.38,4.38,0,0,1-.09,2.65,7.89,7.89,0,0,1-2.45,3.21,9,9,0,0,1-1.1.71,3.92,3.92,0,0,1,.25.32,1.33,1.33,0,0,1,.22.34c1.43-.48,2.85-.87,4.24-1.2a.34.34,0,0,1,.26,0A.31.31,0,0,1,78.45,146.14Z"/><path class="cls-4" d="M166.1,144.33c-.06.12-.1.23-.14.33a5,5,0,0,0,1.76-1,5.16,5.16,0,0,0,1-1.2,2.25,2.25,0,0,0,.35-1c0-.29-.1-.45-.31-.45s-.73.27-1.22.86A11.57,11.57,0,0,0,166.1,144.33Zm5.25-1.06a.26.26,0,0,1,.1.37,12.76,12.76,0,0,1-.72,1.25,10.7,10.7,0,0,1-.95,1.29,10.16,10.16,0,0,1-1.12,1.15,6,6,0,0,1-1.22.86,4.32,4.32,0,0,1-1.3.43,2.47,2.47,0,0,1-1.31-.15,2,2,0,0,1-1-.77,2.48,2.48,0,0,1-.37-1.13,4,4,0,0,1,.11-1.27,6.86,6.86,0,0,1,.39-1.21,8.35,8.35,0,0,1,.95-1.72,6,6,0,0,1,1.13-1.16,4.28,4.28,0,0,1,1.21-.67,3.73,3.73,0,0,1,1.27-.22,1.34,1.34,0,0,1,1,.31,1,1,0,0,1,.31.78,2.4,2.4,0,0,1-.28,1.06,4.79,4.79,0,0,1-.82,1.15,6,6,0,0,1-1.28,1,5.71,5.71,0,0,1-1.68.69,6.94,6.94,0,0,0-.18.86,3,3,0,0,0,0,.78,1.41,1.41,0,0,0,.17.58.55.55,0,0,0,.4.28,1.7,1.7,0,0,0,.85-.1,4,4,0,0,0,.93-.53,7.76,7.76,0,0,0,.94-.82,10,10,0,0,0,.85-1,12,12,0,0,0,.72-1,6.66,6.66,0,0,0,.49-1,.34.34,0,0,1,.19-.18A.35.35,0,0,1,171.35,143.27Zm-14,9.83c.15.1.34,0,.6-.22a6,6,0,0,0,.84-1.08,12.5,12.5,0,0,0,.9-1.61,16,16,0,0,0,.79-1.83,11.58,11.58,0,0,0,.51-1.75,3.33,3.33,0,0,0,.07-1.34c-.26.5-.54,1-.85,1.6s-.61,1.14-.92,1.71-.61,1.12-.88,1.65-.51,1-.7,1.4a6.93,6.93,0,0,0-.4,1C157.28,152.92,157.3,153.07,157.39,153.1Zm4.08-8.46a3.48,3.48,0,0,0,2.1-.35A1.65,1.65,0,0,0,164,144a1.34,1.34,0,0,0,.28-.47.2.2,0,0,1,.17-.16.32.32,0,0,1,.25,0,.38.38,0,0,1,.14.16.33.33,0,0,1,0,.24,1.89,1.89,0,0,1-.34.47,2.73,2.73,0,0,1-.45.36,3.5,3.5,0,0,1-1.11.45,4.19,4.19,0,0,1-1.14.11,8,8,0,0,1-.19,1.49,16.73,16.73,0,0,1-.53,1.9,20.94,20.94,0,0,1-.81,2,10.63,10.63,0,0,1-1,1.75,5,5,0,0,1-1.19,1.19,1.66,1.66,0,0,1-1.28.29.73.73,0,0,1-.61-.67,4,4,0,0,1,.11-1.45,15.57,15.57,0,0,1,.66-2c.3-.76.63-1.56,1-2.4s.78-1.72,1.21-2.61.82-1.75,1.22-2.6.76-1.61,1.1-2.35.64-1.39.89-2a15,15,0,0,0,.56-1.41,1.33,1.33,0,0,0,.12-.72c-.05-.1,0-.2.18-.29a1.65,1.65,0,0,1,.6-.15,1.32,1.32,0,0,1,.71.18,1,1,0,0,1,.47.69,2.41,2.41,0,0,1,0,1.07,11.29,11.29,0,0,1-.39,1.38c-.19.5-.4,1-.65,1.54s-.5,1-.75,1.53l-.72,1.37c-.22.43-.41.78-.55,1Zm-6.57-3a.38.38,0,0,1,.09-.24.8.8,0,0,1,.2-.21.29.29,0,0,0-.29-.19.8.8,0,0,0-.55.2,4,4,0,0,0-.65.65,7.58,7.58,0,0,0-.73,1.05c-.25.42-.5.88-.75,1.4a6,6,0,0,0-.38,1,4.83,4.83,0,0,0-.17,1.07,2.48,2.48,0,0,0,.1.89.76.76,0,0,0,.45.5.59.59,0,0,0,.53,0,2.09,2.09,0,0,0,.55-.47,6.52,6.52,0,0,0,.58-.76c.2-.3.39-.61.57-.94l.54-1c.17-.33.33-.63.49-.9s.33-.72.49-1.05.3-.62.4-.87a4,4,0,0,0,.22-.67.43.43,0,0,0-.06-.38c-.08-.06,0-.14.12-.23a1.33,1.33,0,0,1,.6-.15,1.56,1.56,0,0,1,.74.15,1,1,0,0,1,.54.66,1.86,1.86,0,0,1-.05,1.18,8.51,8.51,0,0,1-.6,1.44c-.25.5-.53,1-.82,1.48s-.53.93-.73,1.31a2.7,2.7,0,0,0-.34.92c0,.22.09.33.36.31a1.13,1.13,0,0,0,.45-.27,6.63,6.63,0,0,0,.62-.65,8.31,8.31,0,0,0,.71-.87c.25-.32.47-.64.68-1s.4-.63.57-.92a5.66,5.66,0,0,0,.35-.72.28.28,0,0,1,.19-.16.45.45,0,0,1,.23,0,.3.3,0,0,1,.17.13.2.2,0,0,1,0,.22c-.1.18-.23.44-.42.77s-.39.68-.63,1.05-.51.75-.8,1.13-.58.71-.88,1a5.78,5.78,0,0,1-.92.77,1.75,1.75,0,0,1-.9.3,1.08,1.08,0,0,1-1-.52,2.23,2.23,0,0,1-.25-1.4,7.53,7.53,0,0,1-.72.94,3.37,3.37,0,0,1-.8.68,2.65,2.65,0,0,1-.94.3,2.31,2.31,0,0,1-1.08-.19,2,2,0,0,1-1-.78,2.64,2.64,0,0,1-.36-1.12,4,4,0,0,1,.1-1.27,9,9,0,0,1,.39-1.21,8.83,8.83,0,0,1,1-1.74,5.75,5.75,0,0,1,1.11-1.18,3.74,3.74,0,0,1,1.22-.66,3.7,3.7,0,0,1,1.27-.19,4.3,4.3,0,0,1,.45.08,1.49,1.49,0,0,1,.45.19,1.2,1.2,0,0,1,.35.36,1.08,1.08,0,0,1,.14.56.59.59,0,0,1-.17.5.52.52,0,0,1-.38.15.62.62,0,0,1-.39-.14A.43.43,0,0,1,154.9,141.67Zm-4.11,1.84a.26.26,0,0,1,.18.17.36.36,0,0,1-.05.26c-.22.4-.45.81-.7,1.21s-.51.82-.77,1.21l-.79,1.14c-.26.36-.52.69-.77,1a16.77,16.77,0,0,1-2.83,2.78,9.48,9.48,0,0,1-2.68,1.46,3.94,3.94,0,0,1-1,.27,5.5,5.5,0,0,1-1,.09,4.73,4.73,0,0,1-1.13-.14,3.82,3.82,0,0,1-1-.41,3.72,3.72,0,0,1-1.31-1.17,4.72,4.72,0,0,1-.68-1.56,6,6,0,0,1-.13-1.76,8.41,8.41,0,0,1,.31-1.76,25.93,25.93,0,0,1,1-2.72,15.3,15.3,0,0,1,2.84-4.42,16.78,16.78,0,0,1,2-1.87,5.94,5.94,0,0,1,1-.61,6.38,6.38,0,0,1,1.34-.44,4.33,4.33,0,0,1,1.48,0,2.84,2.84,0,0,1,1.39.61,2.74,2.74,0,0,1,.81,1.16,4.41,4.41,0,0,1,.3,1.63,4.69,4.69,0,0,1-.35,1.77,3.7,3.7,0,0,1-1.13,1.54.86.86,0,0,1-.67.14,2.14,2.14,0,0,1-.75-.25,1.36,1.36,0,0,1-.52-.45.3.3,0,0,1,.12-.45,3.89,3.89,0,0,0,.88-1,5.46,5.46,0,0,0,.6-1.21,3.91,3.91,0,0,0,.23-1.22,1.81,1.81,0,0,0-.2-1,.56.56,0,0,0-.64-.24,2.83,2.83,0,0,0-1.06.48,8.69,8.69,0,0,0-1.34,1.11,17.13,17.13,0,0,0-1.43,1.63,13.62,13.62,0,0,0-1,1.51c-.31.54-.58,1.07-.83,1.6s-.46,1-.65,1.53-.33.92-.43,1.3a7,7,0,0,0-.32,2,5.08,5.08,0,0,0,.25,1.68,2.83,2.83,0,0,0,.76,1.17,2.22,2.22,0,0,0,1.18.57,3.43,3.43,0,0,0,1.52-.15,6.35,6.35,0,0,0,1.77-1,16.74,16.74,0,0,0,1.47-1.3c.49-.51,1-1.06,1.46-1.67a22.49,22.49,0,0,0,1.41-1.94c.47-.7.9-1.42,1.32-2.18A.36.36,0,0,1,150.79,143.51Z"/><path class="cls-6" d="M166.1,144.33c-.06.12-.1.23-.14.33a5,5,0,0,0,1.76-1,5.16,5.16,0,0,0,1-1.2,2.25,2.25,0,0,0,.35-1c0-.29-.1-.45-.31-.45s-.73.27-1.22.86A11.57,11.57,0,0,0,166.1,144.33Zm5.25-1.06a.26.26,0,0,1,.1.37,12.76,12.76,0,0,1-.72,1.25,10.7,10.7,0,0,1-.95,1.29,10.16,10.16,0,0,1-1.12,1.15,6,6,0,0,1-1.22.86,4.32,4.32,0,0,1-1.3.43,2.47,2.47,0,0,1-1.31-.15,2,2,0,0,1-1-.77,2.48,2.48,0,0,1-.37-1.13,4,4,0,0,1,.11-1.27,6.86,6.86,0,0,1,.39-1.21,8.35,8.35,0,0,1,.95-1.72,6,6,0,0,1,1.13-1.16,4.28,4.28,0,0,1,1.21-.67,3.73,3.73,0,0,1,1.27-.22,1.34,1.34,0,0,1,1,.31,1,1,0,0,1,.31.78,2.4,2.4,0,0,1-.28,1.06,4.79,4.79,0,0,1-.82,1.15,6,6,0,0,1-1.28,1,5.71,5.71,0,0,1-1.68.69,6.94,6.94,0,0,0-.18.86,3,3,0,0,0,0,.78,1.41,1.41,0,0,0,.17.58.55.55,0,0,0,.4.28,1.7,1.7,0,0,0,.85-.1,4,4,0,0,0,.93-.53,7.76,7.76,0,0,0,.94-.82,10,10,0,0,0,.85-1,12,12,0,0,0,.72-1,6.66,6.66,0,0,0,.49-1,.34.34,0,0,1,.19-.18A.35.35,0,0,1,171.35,143.27Zm-14,9.83c.15.1.34,0,.6-.22a6,6,0,0,0,.84-1.08,12.5,12.5,0,0,0,.9-1.61,16,16,0,0,0,.79-1.83,11.58,11.58,0,0,0,.51-1.75,3.33,3.33,0,0,0,.07-1.34c-.26.5-.54,1-.85,1.6s-.61,1.14-.92,1.71-.61,1.12-.88,1.65-.51,1-.7,1.4a6.93,6.93,0,0,0-.4,1C157.28,152.92,157.3,153.07,157.39,153.1Zm4.08-8.46a3.48,3.48,0,0,0,2.1-.35A1.65,1.65,0,0,0,164,144a1.34,1.34,0,0,0,.28-.47.2.2,0,0,1,.17-.16.32.32,0,0,1,.25,0,.38.38,0,0,1,.14.16.33.33,0,0,1,0,.24,1.89,1.89,0,0,1-.34.47,2.73,2.73,0,0,1-.45.36,3.5,3.5,0,0,1-1.11.45,4.19,4.19,0,0,1-1.14.11,8,8,0,0,1-.19,1.49,16.73,16.73,0,0,1-.53,1.9,20.94,20.94,0,0,1-.81,2,10.63,10.63,0,0,1-1,1.75,5,5,0,0,1-1.19,1.19,1.66,1.66,0,0,1-1.28.29.73.73,0,0,1-.61-.67,4,4,0,0,1,.11-1.45,15.57,15.57,0,0,1,.66-2c.3-.76.63-1.56,1-2.4s.78-1.72,1.21-2.61.82-1.75,1.22-2.6.76-1.61,1.1-2.35.64-1.39.89-2a15,15,0,0,0,.56-1.41,1.33,1.33,0,0,0,.12-.72c-.05-.1,0-.2.18-.29a1.65,1.65,0,0,1,.6-.15,1.32,1.32,0,0,1,.71.18,1,1,0,0,1,.47.69,2.41,2.41,0,0,1,0,1.07,11.29,11.29,0,0,1-.39,1.38c-.19.5-.4,1-.65,1.54s-.5,1-.75,1.53l-.72,1.37c-.22.43-.41.78-.55,1Zm-6.57-3a.38.38,0,0,1,.09-.24.8.8,0,0,1,.2-.21.29.29,0,0,0-.29-.19.8.8,0,0,0-.55.2,4,4,0,0,0-.65.65,7.58,7.58,0,0,0-.73,1.05c-.25.42-.5.88-.75,1.4a6,6,0,0,0-.38,1,4.83,4.83,0,0,0-.17,1.07,2.48,2.48,0,0,0,.1.89.76.76,0,0,0,.45.5.59.59,0,0,0,.53,0,2.09,2.09,0,0,0,.55-.47,6.52,6.52,0,0,0,.58-.76c.2-.3.39-.61.57-.94l.54-1c.17-.33.33-.63.49-.9s.33-.72.49-1.05.3-.62.4-.87a4,4,0,0,0,.22-.67.43.43,0,0,0-.06-.38c-.08-.06,0-.14.12-.23a1.33,1.33,0,0,1,.6-.15,1.56,1.56,0,0,1,.74.15,1,1,0,0,1,.54.66,1.86,1.86,0,0,1-.05,1.18,8.51,8.51,0,0,1-.6,1.44c-.25.5-.53,1-.82,1.48s-.53.93-.73,1.31a2.7,2.7,0,0,0-.34.92c0,.22.09.33.36.31a1.13,1.13,0,0,0,.45-.27,6.63,6.63,0,0,0,.62-.65,8.31,8.31,0,0,0,.71-.87c.25-.32.47-.64.68-1s.4-.63.57-.92a5.66,5.66,0,0,0,.35-.72.28.28,0,0,1,.19-.16.45.45,0,0,1,.23,0,.3.3,0,0,1,.17.13.2.2,0,0,1,0,.22c-.1.18-.23.44-.42.77s-.39.68-.63,1.05-.51.75-.8,1.13-.58.71-.88,1a5.78,5.78,0,0,1-.92.77,1.75,1.75,0,0,1-.9.3,1.08,1.08,0,0,1-1-.52,2.23,2.23,0,0,1-.25-1.4,7.53,7.53,0,0,1-.72.94,3.37,3.37,0,0,1-.8.68,2.65,2.65,0,0,1-.94.3,2.31,2.31,0,0,1-1.08-.19,2,2,0,0,1-1-.78,2.64,2.64,0,0,1-.36-1.12,4,4,0,0,1,.1-1.27,9,9,0,0,1,.39-1.21,8.83,8.83,0,0,1,1-1.74,5.75,5.75,0,0,1,1.11-1.18,3.74,3.74,0,0,1,1.22-.66,3.7,3.7,0,0,1,1.27-.19,4.3,4.3,0,0,1,.45.08,1.49,1.49,0,0,1,.45.19,1.2,1.2,0,0,1,.35.36,1.08,1.08,0,0,1,.14.56.59.59,0,0,1-.17.5.52.52,0,0,1-.38.15.62.62,0,0,1-.39-.14A.43.43,0,0,1,154.9,141.67Zm-4.11,1.84a.26.26,0,0,1,.18.17.36.36,0,0,1-.05.26c-.22.4-.45.81-.7,1.21s-.51.82-.77,1.21l-.79,1.14c-.26.36-.52.69-.77,1a16.77,16.77,0,0,1-2.83,2.78,9.48,9.48,0,0,1-2.68,1.46,3.94,3.94,0,0,1-1,.27,5.5,5.5,0,0,1-1,.09,4.73,4.73,0,0,1-1.13-.14,3.82,3.82,0,0,1-1-.41,3.72,3.72,0,0,1-1.31-1.17,4.72,4.72,0,0,1-.68-1.56,6,6,0,0,1-.13-1.76,8.41,8.41,0,0,1,.31-1.76,25.93,25.93,0,0,1,1-2.72,15.3,15.3,0,0,1,2.84-4.42,16.78,16.78,0,0,1,2-1.87,5.94,5.94,0,0,1,1-.61,6.38,6.38,0,0,1,1.34-.44,4.33,4.33,0,0,1,1.48,0,2.84,2.84,0,0,1,1.39.61,2.74,2.74,0,0,1,.81,1.16,4.41,4.41,0,0,1,.3,1.63,4.69,4.69,0,0,1-.35,1.77,3.7,3.7,0,0,1-1.13,1.54.86.86,0,0,1-.67.14,2.14,2.14,0,0,1-.75-.25,1.36,1.36,0,0,1-.52-.45.3.3,0,0,1,.12-.45,3.89,3.89,0,0,0,.88-1,5.46,5.46,0,0,0,.6-1.21,3.91,3.91,0,0,0,.23-1.22,1.81,1.81,0,0,0-.2-1,.56.56,0,0,0-.64-.24,2.83,2.83,0,0,0-1.06.48,8.69,8.69,0,0,0-1.34,1.11,17.13,17.13,0,0,0-1.43,1.63,13.62,13.62,0,0,0-1,1.51c-.31.54-.58,1.07-.83,1.6s-.46,1-.65,1.53-.33.92-.43,1.3a7,7,0,0,0-.32,2,5.08,5.08,0,0,0,.25,1.68,2.83,2.83,0,0,0,.76,1.17,2.22,2.22,0,0,0,1.18.57,3.43,3.43,0,0,0,1.52-.15,6.35,6.35,0,0,0,1.77-1,16.74,16.74,0,0,0,1.47-1.3c.49-.51,1-1.06,1.46-1.67a22.49,22.49,0,0,0,1.41-1.94c.47-.7.9-1.42,1.32-2.18A.36.36,0,0,1,150.79,143.51Z"/><path class="cls-4" d="M122.8,42.1c-1.13-.35-.78,3.2-2.37,5.65a1.3,1.3,0,0,1-1.52.64c-1-.32-1.48-1.85-1.78-2.86l-.88-3.29c-.1-.47-.26-2-.7-2.14a.46.46,0,0,0-.55.34l.55,7.17c0,.68.29,7.11.59,7.21l2.36-.11c4.2-.07,9.09,1.57,13,3.15a23.43,23.43,0,0,1,4.68,2.47l1.89,1.49c.78-.21.81-.54,1.35-1.11s.8-.92,1.2-1.41L148,50.87c.09-.25.14-.38-.16-.47-.48-.15-3.84,2.91-4.58,3.41s-2.18,1.65-3.18,1.33a1.36,1.36,0,0,1-1-1.29,10.08,10.08,0,0,1,.43-2c.24-.53.62-1.41.86-1.92a6.38,6.38,0,0,0,.72-2c-.76-.24-.89.13-2.06,1.47a10.12,10.12,0,0,1-2.88,2.5,2.42,2.42,0,0,1-3.25-1.65c-.51-1.9,0-4.71.4-6.92l.7-3.12c.17-.68.42-1.21-.17-1.39s-.68.48-.86,1l-2,4.15c-.92,1.68-3.21,6-5.66,5.11-1.68-.57-2-2.92-2.07-4.41C123.13,43.79,123.28,42.26,122.8,42.1Z"/><path class="cls-4" d="M115.79,57.39a1.3,1.3,0,0,0,.13,1.33,3.29,3.29,0,0,0,.76.87,9.81,9.81,0,0,0,2,1.43c3.93,2.21,11.58,5,16.37,4.31.66-.1,1.75-.43,1.84-1.25.15-1.39-2.12-2.78-3.28-3.37-.45-.23-.7-.39-1.23-.65a39.7,39.7,0,0,0-12-3.56C119.14,56.35,116.21,56.17,115.79,57.39Z"/><path class="cls-4" d="M134,37.24l.68.22c1.68.53,2.49-2.3.86-2.82-.8-.25-1.55-.42-2.16.8A1.34,1.34,0,0,0,134,37.24Z"/><path class="cls-4" d="M141.15,44.87a1.57,1.57,0,0,0,.84,1.92l.48.15c1.51.49,2.66-2.35.81-2.94A2.5,2.5,0,0,0,142,44,1.82,1.82,0,0,0,141.15,44.87Z"/><path class="cls-4" d="M113.33,36.61c-.73,2.09,2.33,2.88,3,.86C116.88,36,114,34.59,113.33,36.61Z"/><path class="cls-4" d="M121.32,38.33c-.18.5-.36.87,0,1.41,1.1,1.86,3.72.29,2.84-1.36A1.6,1.6,0,0,0,121.32,38.33Z"/><path class="cls-4" d="M149.72,49.87A1.52,1.52,0,1,0,150.81,47,1.52,1.52,0,1,0,149.72,49.87Z"/><path class="cls-4" d="M174.58,193.12l-1.36.43a1.4,1.4,0,0,0-1.26-1.73c-.78-.12-1.18.15-1.18.82a.83.83,0,0,0,.23.61,6.6,6.6,0,0,0,1.08.85,5.32,5.32,0,0,1,1.38,1.23,3,3,0,0,1,.48,1.79,2.72,2.72,0,0,1-.78,2,2.17,2.17,0,0,1-2,.57,4.23,4.23,0,0,1-2-1,2.33,2.33,0,0,1-.87-1.73,4.18,4.18,0,0,1,.55-1.58,3,3,0,0,0,.52,1.43,2.57,2.57,0,0,0,1.75,1.3,1.23,1.23,0,0,0,1-.21,1.08,1.08,0,0,0,.43-.91,1.21,1.21,0,0,0-.56-.92c-.3-.23-.82-.64-1.55-1.17a2.63,2.63,0,0,1-1-2.31,2.26,2.26,0,0,1,.74-1.83,2.22,2.22,0,0,1,1.83-.45,3,3,0,0,1,1.85.94A3.49,3.49,0,0,1,174.58,193.12Zm-6.21-1-1.35.41a1.35,1.35,0,0,0-1.26-1.66c-.79-.11-1.18.17-1.18.83a.79.79,0,0,0,.23.58,6.65,6.65,0,0,0,1.08.8,5,5,0,0,1,1.38,1.18,2.79,2.79,0,0,1,.48,1.73,2.64,2.64,0,0,1-.78,1.92,2.22,2.22,0,0,1-2.05.59,4,4,0,0,1-2-.95,2.19,2.19,0,0,1-.87-1.67,4.27,4.27,0,0,1,.54-1.55,2.82,2.82,0,0,0,.53,1.38,2.51,2.51,0,0,0,1.76,1.23,1.22,1.22,0,0,0,.95-.23,1.11,1.11,0,0,0,.42-.89,1.12,1.12,0,0,0-.55-.88c-.31-.22-.82-.61-1.55-1.11a2.47,2.47,0,0,1-1-2.23,2.21,2.21,0,0,1,.74-1.79,2.3,2.3,0,0,1,1.83-.48,3,3,0,0,1,1.85.9A3.21,3.21,0,0,1,168.37,192.12Zm-8-.8a1.52,1.52,0,0,0-.24-.83.87.87,0,0,0-.62-.41,1.49,1.49,0,0,0-1.42.8,4.85,4.85,0,0,0-.7,2Zm1.57,1c-1.51.74-3,1.51-4.52,2.28a2,2,0,0,0,.45.82,1.34,1.34,0,0,0,.81.47,1.49,1.49,0,0,0,1.31-.65,4.79,4.79,0,0,0,.92-1.95,2.07,2.07,0,0,1,.69,1.43,2.84,2.84,0,0,1-.83,1.87,2.51,2.51,0,0,1-2.33.92,2.9,2.9,0,0,1-2.13-1.4,4.8,4.8,0,0,1-.66-2.66,6,6,0,0,1,1-3.45,2.92,2.92,0,0,1,2.85-1.43,2.36,2.36,0,0,1,1.84,1.2A4.33,4.33,0,0,1,162,192.31Zm-6.82-1.94c-.1.49-.25,1.16-.42,2l-.66,3.13a2.44,2.44,0,0,0,0,1.18c-.69-.09-1.39-.18-2.07-.25a2.39,2.39,0,0,0,.41-1c.17-.77.34-1.56.51-2.38s.35-1.64.54-2.49a2.1,2.1,0,0,0,0-.41c0-.45-.18-.7-.58-.73a1.54,1.54,0,0,0-1.3.52,3.24,3.24,0,0,0-.77,1.55l-.75,3.53a2.66,2.66,0,0,0,0,1.19l-2.07-.22a2.91,2.91,0,0,0,.45-1.1c.17-.86.37-1.73.54-2.59s.37-1.73.55-2.6a3.15,3.15,0,0,0-.07-1.41l1.86-.55-.21,1.21a2.82,2.82,0,0,1,2.34-1,1.9,1.9,0,0,1,1.24.6,1.8,1.8,0,0,1,.45,1.3A2.07,2.07,0,0,1,155.16,190.37Zm-6.55-2.78c-.25,1.2-.51,2.4-.75,3.59s-.49,2.4-.73,3.59a1.92,1.92,0,0,0,.07,1.16l-2.17-.2a1.48,1.48,0,0,0,.45-.78c.19-.9.39-1.77.56-2.64s.37-1.74.54-2.59a3,3,0,0,0,0-1.53C147.25,188,147.93,187.78,148.61,187.59Zm.41-1.73a1.54,1.54,0,0,1-.27.86.74.74,0,0,1-.68.34c-.59-.05-.89-.43-.89-1.13a1.45,1.45,0,0,1,.32-.9.86.86,0,0,1,.71-.33C148.76,184.75,149,185.13,149,185.86Zm-3.84,4.94a6.38,6.38,0,0,1-1,3.49,2.47,2.47,0,0,1-2.26,1.35,1.72,1.72,0,0,1-1-.39,1,1,0,0,1-.43-.86,2.54,2.54,0,0,1,.55-1.22c.17.55.42.84.74.86.49,0,.89-.33,1.23-1.11a6,6,0,0,0,.49-2.41c0-1.22-.39-1.85-1.21-1.9a1.9,1.9,0,0,0-.84.18c-.29,1.34-.57,2.67-.85,4s-.55,2.66-.83,4a3.27,3.27,0,0,0-.05,1.54c-.71-.06-1.42-.1-2.12-.14a5.13,5.13,0,0,0,.61-1.63c.31-1.48.63-3,.93-4.44s.63-3,.94-4.44a3.26,3.26,0,0,1,2.18-.61,2.74,2.74,0,0,1,2.14,1.1A4.24,4.24,0,0,1,145.18,190.8Zm-6.78-.44a6.34,6.34,0,0,1-1,3.46,2.58,2.58,0,0,1-2.27,1.41,1.73,1.73,0,0,1-1-.36,1,1,0,0,1-.43-.84,2.56,2.56,0,0,1,.55-1.23c.17.54.42.82.74.84.48,0,.9-.36,1.24-1.13a6,6,0,0,0,.48-2.39c0-1.2-.39-1.82-1.21-1.84a1.64,1.64,0,0,0-.83.19c-.3,1.32-.58,2.66-.85,4l-.84,4a3.36,3.36,0,0,0-.05,1.53q-1-.06-2.13-.09a5,5,0,0,0,.62-1.63c.31-1.47.63-2.94.93-4.41s.63-2.94.94-4.41a3.27,3.27,0,0,1,2.18-.66,2.69,2.69,0,0,1,2.14,1A4,4,0,0,1,138.4,190.36Zm-8.73.41c-.58.2-1.17.38-1.74.62a1.56,1.56,0,0,0-1.06,1.38.78.78,0,0,0,.22.51.61.61,0,0,0,.49.25,1.69,1.69,0,0,0,1.43-.82A4.62,4.62,0,0,0,129.67,190.77Zm2.09-2.21c0,.26-.17.8-.34,1.63s-.43,1.93-.73,3.31a2.93,2.93,0,0,0,0,1.38l-1.63,0c0-.24,0-.5,0-.74a2.5,2.5,0,0,1-1.91.87,2,2,0,0,1-1.51-.59,2,2,0,0,1-.51-1.5,2.86,2.86,0,0,1,.73-1.89,3.15,3.15,0,0,1,1.15-.84,11.19,11.19,0,0,1,1.54-.47,4.88,4.88,0,0,0,1-.34.93.93,0,0,0,.56-.8c0-.37-.2-.58-.66-.58a2.21,2.21,0,0,0-1.1.34,3.62,3.62,0,0,0-1.28,1.19,2.7,2.7,0,0,1-.35-1.11,1.57,1.57,0,0,1,1-1.33,4,4,0,0,1,2-.51c1.36,0,2,.55,2,1.58A2.35,2.35,0,0,1,131.76,188.56Zm-5.26-6.21a6.88,6.88,0,0,0-.31.64,6.24,6.24,0,0,0-.29,1l-1,4.75c-.34,1.59-.67,3.17-1,4.76a4.29,4.29,0,0,0-.07.59,2.63,2.63,0,0,0,.07.49.81.81,0,0,0,0,.21l-2.34,0a3.12,3.12,0,0,0,.6-1.46l.44-2.08c.14-.68.28-1.32.41-1.95l-3.47.06c-.16.75-.32,1.47-.46,2.16s-.29,1.36-.43,2a2.75,2.75,0,0,0,0,1.31c-.79,0-1.58,0-2.36.06a3.15,3.15,0,0,0,.63-1.47c.21-1.07.49-2.42.83-4.05s.75-3.55,1.24-5.75a2.23,2.23,0,0,0-.06-1.23l2.32,0c-.16.26-.24.45-.28.52a6.17,6.17,0,0,0-.33,1.12l-.79,3.73,3.46,0c.14-.7.3-1.39.44-2.08s.29-1.38.45-2.06a1.42,1.42,0,0,0,0-.31,4.08,4.08,0,0,0-.11-.92h2.34Zm-15.69,7a1.09,1.09,0,0,0-.25-.72.75.75,0,0,0-.6-.3,1.9,1.9,0,0,0-1.43,1,5.1,5.1,0,0,0-.71,2C108.81,190.66,109.8,190,110.81,189.39Zm1.58.63c-1.52,1-3,1.94-4.53,2.95a1.5,1.5,0,0,0,.45.67,1.1,1.1,0,0,0,.81.28,1.92,1.92,0,0,0,1.3-.84,5,5,0,0,0,.93-2,1.47,1.47,0,0,1,.69,1.2,3.13,3.13,0,0,1-.83,1.88,3.27,3.27,0,0,1-2.33,1.29,2.29,2.29,0,0,1-2.12-.87,3.76,3.76,0,0,1-.67-2.38,6.29,6.29,0,0,1,1-3.46A3.62,3.62,0,0,1,110,187a2,2,0,0,1,1.84.82A3.44,3.44,0,0,1,112.39,190Zm-6.53-1.08a8.32,8.32,0,0,1-1.39,3.65c-.46.78-1.18,1.86-2.18,3.24l-1.63.18c0-.48-.1-1.22-.19-2.21s-.17-2.22-.31-3.71a6.15,6.15,0,0,0-.41-1.92l2.14-.21a2.3,2.3,0,0,0-.19,1c0,.82.09,1.64.14,2.45s.09,1.64.14,2.45a19.68,19.68,0,0,0,1.22-2,6.35,6.35,0,0,0,1-2.66c0-.53-.26-.78-.82-.74a2.45,2.45,0,0,0-.41.08,3,3,0,0,1,.54-1,1.21,1.21,0,0,1,.81-.33,1.35,1.35,0,0,1,1,.32A1.54,1.54,0,0,1,105.86,188.94Zm-5.85.13a2.63,2.63,0,0,0-1.64.81,2.35,2.35,0,0,0-.51.82,15.24,15.24,0,0,0-.38,1.49c-.1.52-.32,1.47-.61,2.87a3,3,0,0,0,0,1.37c-.7.07-1.4.15-2.08.25a5.52,5.52,0,0,0,.51-1.55c.11-.54.26-1.2.41-2s.35-1.69.56-2.72a5.85,5.85,0,0,0,.11-1,1.91,1.91,0,0,0-.11-.66l1.86-.87c-.07.38-.13.75-.19,1.13.48-.84.94-1.27,1.37-1.31a.49.49,0,0,1,.55.29A3.38,3.38,0,0,1,100,189.07Zm-6.51,1.85a1.08,1.08,0,0,0-.25-.73.62.62,0,0,0-.6-.24,2,2,0,0,0-1.43,1.1,5.36,5.36,0,0,0-.7,2Zm1.58.52c-1.51,1.11-3,2.22-4.53,3.35a1.37,1.37,0,0,0,.45.66,1,1,0,0,0,.81.25,2,2,0,0,0,1.3-1,5.74,5.74,0,0,0,.93-2.11,1.39,1.39,0,0,1,.69,1.16,4.2,4.2,0,0,1-3.15,3.52,2.15,2.15,0,0,1-2.14-.76,3.89,3.89,0,0,1-.65-2.41,6.88,6.88,0,0,1,1-3.62,3.87,3.87,0,0,1,2.85-2,1.87,1.87,0,0,1,1.84.69A3.4,3.4,0,0,1,95.08,191.44ZM89,186.89l-1.68.78c0-1.18-.51-1.7-1.66-1.53a2.34,2.34,0,0,0-1.49.78,2.25,2.25,0,0,0-.57,1.51,1,1,0,0,0,.3.75,5.06,5.06,0,0,0,.87.58c.34.2.93.5,1.73.94A3,3,0,0,1,88,193.51a5.38,5.38,0,0,1-1.11,3.24,4.37,4.37,0,0,1-2.79,1.73,3.68,3.68,0,0,1-2.72-.46,2.12,2.12,0,0,1-1.17-1.85,4.91,4.91,0,0,1,.74-2,3.29,3.29,0,0,0,1.31,2.24,2.36,2.36,0,0,0,1.87.35,2.73,2.73,0,0,0,2.14-2.61,1.56,1.56,0,0,0-.82-1.32l-1.79-1a4.28,4.28,0,0,1-1.29-1,3.08,3.08,0,0,1-.48-1.93,4.33,4.33,0,0,1,1.06-2.91,3.94,3.94,0,0,1,2.59-1.45,3,3,0,0,1,2.39.55A3.08,3.08,0,0,1,89,186.89ZM74.39,194a1.17,1.17,0,0,0-.25-.75.62.62,0,0,0-.62-.23,2.23,2.23,0,0,0-1.41,1.27,6.71,6.71,0,0,0-.71,2.23C72.39,195.64,73.39,194.8,74.39,194Zm1.56.46c-1.51,1.26-3,2.53-4.52,3.85a1.29,1.29,0,0,0,.45.66.92.92,0,0,0,.81.19A2.36,2.36,0,0,0,74,198a7,7,0,0,0,.94-2.27,1.39,1.39,0,0,1,.68,1.18,4,4,0,0,1-.84,2.16,3.92,3.92,0,0,1-2.32,1.76,2,2,0,0,1-2.14-.61,4,4,0,0,1-.66-2.5,8.24,8.24,0,0,1,1-3.93,4.27,4.27,0,0,1,2.84-2.36,1.72,1.72,0,0,1,1.84.64A3.5,3.5,0,0,1,76,194.44Zm-4.89-5.17a7.62,7.62,0,0,1-.46,2.16,24.3,24.3,0,0,1-1.29,3.07c-.27.57-.76,1.51-1.42,2.82s-1.51,3-2.55,5.11l-1.73.47-.21-4.16L61,203.61l-1.7.48c-.1-1.87-.22-3.74-.31-5.61s-.2-3.76-.29-5.64a9.28,9.28,0,0,0-.46-2.82c.78-.16,1.56-.34,2.35-.52a5.11,5.11,0,0,0-.22,1.49c.08,1.62.14,3.24.21,4.85s.14,3.23.23,4.85c.39-.87.8-1.73,1.19-2.59s.81-1.72,1.22-2.57l-.21-3.7a8.15,8.15,0,0,0-.48-2.75l2.38-.52a4.32,4.32,0,0,0-.22,1.46l.21,4.75c.07,1.58.15,3.16.23,4.73.37-.79.8-1.68,1.27-2.69s1-2.1,1.58-3.34a11.63,11.63,0,0,0,1.24-3.68c0-1-.55-1.37-1.63-1.16l-.18,0c.46-1,1-1.53,1.55-1.64a1.58,1.58,0,0,1,1.46.47A2.39,2.39,0,0,1,71.06,189.27Z"/></g></g></svg>