<svg xmlns="http://www.w3.org/2000/svg" viewBox="0 0 99.85 144.44"><defs><style>.cls-1{fill:#ffbc2a;}</style></defs><title>Menu Card</title><g id="Layer_2" data-name="Layer 2"><g id="Homepage_Long" data-name="Homepage Long"><rect class="cls-1" x="8.81" y="31.3" width="91.04" height="113.15" rx="5.65"/><path d="M77,21.4h-4.6V4.45C72.37,1.72,70.79,0,68.64,0a4.06,4.06,0,0,0-1.29.14L5,19.24c-2.88.86-5,4.17-5,7.33v104a5.91,5.91,0,0,0,5.89,5.89H77.25a5.92,5.92,0,0,0,5.89-5.89V27.14A6.24,6.24,0,0,0,77,21.4Zm-9-16.66V21.4H13.64ZM78.26,130.53A1.28,1.28,0,0,1,77,131.82H5.6a1.28,1.28,0,0,1-1.29-1.29V27.14A1.28,1.28,0,0,1,5.6,25.85H77a1.28,1.28,0,0,1,1.29,1.29V130.53Z"/><path d="M63.9,53.85c-.14-.15-.43,0-.57.14S56,64.91,54.14,67.49a.67.67,0,0,1-1,.14c-.14-.14-.43-.28-.57-.43a.67.67,0,0,1-.15-1L61,52.27c.14-.14,0-.43-.15-.58l-1.43-1c-.14-.14-.43,0-.58.14,0,0-7.32,10.92-9.19,13.5a.66.66,0,0,1-1,.14c-.14-.14-.43-.28-.58-.43A.67.67,0,0,1,48,63l8.62-13.93c.14-.14,0-.43-.15-.57l-1.43-1c-.15-.14-.43,0-.58.14L45.09,61.46h0l-1.15,1.72a7.33,7.33,0,0,0-1.15,5.6l.86,3.59L42.5,74l3,4.17,1.87-3.31,3.73-.71a7.39,7.39,0,0,0,4.6-3.31l1.14-1.72h0L65.62,55c.15-.15,0-.43-.14-.58Z"/><path d="M37.34,73.23l-16.09-25c-1.15-1.72-6.75,5.6-2.73,13.64s6.32,12.49,7.76,15.36A5.83,5.83,0,0,0,34,79.84l1.15-.58,18.24,31.88a2.21,2.21,0,0,0,3.16.72l3.87-2.44a2.21,2.21,0,0,0,.58-3.3Z"/><path d="M19.53,106.4a2.3,2.3,0,0,0,.57,3.16L23.84,112a2.34,2.34,0,0,0,3.16-.71L38.2,91.61l-3.45-6.17Z"/></g></g></svg>