<?xml version="1.0" encoding="utf-8"?>
<!-- Generator: Adobe Illustrator 24.0.3, SVG Export Plug-In . SVG Version: 6.00 Build 0)  -->
<svg version="1.1" id="Layer_1" xmlns="http://www.w3.org/2000/svg" xmlns:xlink="http://www.w3.org/1999/xlink" x="0px" y="0px"
	 viewBox="0 0 45.6 45.6" style="enable-background:new 0 0 45.6 45.6;" xml:space="preserve">
<style type="text/css">
	.st0{fill:#494949;stroke:#494949;stroke-width:0.9591;stroke-miterlimit:10;}
</style>
<title>Asset 22</title>
<g id="Layer_2_1_">
	<g id="Homepage_Long">
		<path class="st0" d="M36.2,31c-0.4-0.4-1-0.4-1.4,0c0,0,0,0,0,0l-1.2,1.2l-1.4-1.4c6.6-7.2,6.2-18.4-1-25s-18.4-6.2-25,1
			s-6.2,18.4,1,25c6.6,6.1,16.8,6.3,23.6,0.4l1.4,1.4l-1.2,1.2c-0.2,0.2-0.3,0.4-0.3,0.7c0,0.3,0.1,0.5,0.3,0.7l7.8,7.8
			c0.7,0.7,1.6,1.1,2.6,1.1c2,0,3.7-1.7,3.7-3.7c0-1-0.4-1.9-1.1-2.6L36.2,31z M19.4,34.5c-8.3,0-15.1-6.7-15.1-15.1
			c0-8.3,6.7-15.1,15.1-15.1S34.4,11,34.5,19.3c0,0,0,0,0,0.1C34.4,27.7,27.7,34.4,19.4,34.5z M42.6,42.6c-0.7,0.7-1.7,0.7-2.4,0
			c0,0,0,0,0,0L33,35.5l2.4-2.5l7.1,7.1c0.4,0.3,0.6,0.8,0.5,1.3C43.1,41.8,42.9,42.3,42.6,42.6L42.6,42.6z"/>
	</g>
</g>
</svg>
