<svg xmlns="http://www.w3.org/2000/svg" viewBox="0 0 214.1 62.32"><defs><style>.cls-1{fill:#ec6232;}</style></defs><title>Swiggy</title><g id="Layer_2" data-name="Layer 2"><g id="Homepage_Long" data-name="Homepage Long"><path class="cls-1" d="M207.76,18.87h6.34l-8.71,16.34v8.21h-6.1V35.55L190,18.87h6.77l4.28,7.83a30.29,30.29,0,0,1,1.31,2.89,30.8,30.8,0,0,1,1.26-2.89l4.12-7.83Zm-33.5,16.3V29.68h11.27v11l-.24.19A15.57,15.57,0,0,1,176,43.73c-7.81,0-13.26-5.18-13.26-12.59A12.11,12.11,0,0,1,175.21,18.6c4,0,6.91,1.12,8.93,3.43l.39.45-4.13,4.1-.45-.47a5.81,5.81,0,0,0-4.74-1.92c-3.72,0-6.31,2.86-6.31,7,0,4.27,2.77,7,7.06,7a11.65,11.65,0,0,0,3.91-.63V35.17Zm-30.74,0V29.68h11.26v11l-.23.19a15.6,15.6,0,0,1-9.33,2.85c-7.81,0-13.26-5.18-13.26-12.59a12.11,12.11,0,0,1,12.5-12.54c4,0,6.91,1.12,8.93,3.43l.4.45-4.14,4.1-.45-.47a5.8,5.8,0,0,0-4.74-1.92c-3.71,0-6.3,2.86-6.3,7,0,4.27,2.77,7,7.06,7a11.65,11.65,0,0,0,3.91-.63V35.17Zm-26,8.25V18.87h6.06V43.42ZM101,29.14l3.5-9.77h6l-8.91,24.76H100.3L94.9,32.54c-.25-.53-.51-1.19-.73-1.8-.23.61-.5,1.27-.75,1.8L87.81,44.13H86.48l-9-24.76h6.42l3.54,9.77c.23.62.46,1.38.66,2.09a19.25,19.25,0,0,1,.83-2.15l4.65-9.91h1.29l4.72,9.91a20,20,0,0,1,.83,2.15c.21-.71.44-1.47.67-2.09ZM65.92,28.3c4.17,1.78,6.75,3.77,6.75,8.12s-3.37,7.31-8.57,7.31c-4.22,0-7.61-1.91-9.3-5.25L54.53,38l5-2.88.33.53c1.11,1.83,2.36,2.61,4.17,2.61,1.57,0,2.61-.7,2.61-1.73s-.75-1.57-3.1-2.59l-1.19-.51c-3.19-1.36-6.14-3.25-6.14-7.81,0-4.11,3.15-7,7.65-7a7.72,7.72,0,0,1,7.36,4.15l.3.53-4.8,3.09-.34-.6c-.8-1.43-1.56-1.72-2.52-1.72s-1.65.55-1.65,1.41.48,1.42,2.56,2.33l1.19.51Zm-44.79,34-.13-.1A169.25,169.25,0,0,1,10.87,48c-1.42-2.38-2.34-4.24-2.16-4.71.46-1.25,8.71-1.93,11.25-.8.78.34.76.79.76,1.06,0,1.14-.06,4.2-.06,4.2a1.15,1.15,0,1,0,2.29,0V40.13h0c0-.67-.73-.83-.86-.86H15.17c-6.38,0-7.81.26-8.89-.45C3.93,37.28.09,26.93,0,21.1a21.11,21.11,0,0,1,42.08-2.38v0c.22,2.55-13.82,3.09-16.59,2.35a.78.78,0,0,1-.54-.74c0-1.94,0-7.39,0-7.39a1.15,1.15,0,0,0-1.15-1.14h0A1.14,1.14,0,0,0,22.64,13l0,10a.86.86,0,0,0,.7.83h8.71c4.65,0,6.6.54,7.9,1.53.86.66,1.2,1.92.9,3.56-2.6,14.58-19.12,32.64-19.74,33.39Z" transform="translate(0 0)"/></g></g></svg>