<svg xmlns="http://www.w3.org/2000/svg" viewBox="0 0 117.05 214.38"><defs><style>.cls-1{fill:#fff;}</style></defs><title>White Dotted Pattern</title><g id="Layer_2" data-name="Layer 2"><g id="Homepage_Long" data-name="Homepage Long"><circle class="cls-1" cx="7.01" cy="7.01" r="7.01"/><circle class="cls-1" cx="41.35" cy="7.01" r="7.01"/><circle class="cls-1" cx="75.69" cy="7.01" r="7.01"/><circle class="cls-1" cx="110.04" cy="7.01" r="7.01"/><circle class="cls-1" cx="7.01" cy="35.69" r="7.01"/><circle class="cls-1" cx="41.35" cy="35.69" r="7.01"/><circle class="cls-1" cx="75.69" cy="35.69" r="7.01"/><circle class="cls-1" cx="110.04" cy="35.69" r="7.01"/><circle class="cls-1" cx="7.01" cy="64.37" r="7.01"/><circle class="cls-1" cx="41.35" cy="64.37" r="7.01"/><circle class="cls-1" cx="75.69" cy="64.37" r="7.01"/><circle class="cls-1" cx="110.04" cy="64.37" r="7.01"/><circle class="cls-1" cx="7.01" cy="93.05" r="7.01"/><circle class="cls-1" cx="41.35" cy="93.05" r="7.01"/><circle class="cls-1" cx="75.69" cy="93.05" r="7.01"/><circle class="cls-1" cx="110.04" cy="93.05" r="7.01"/><circle class="cls-1" cx="7.01" cy="121.33" r="7.01"/><circle class="cls-1" cx="41.35" cy="121.33" r="7.01"/><circle class="cls-1" cx="75.69" cy="121.33" r="7.01"/><circle class="cls-1" cx="110.04" cy="121.33" r="7.01"/><circle class="cls-1" cx="7.01" cy="150.01" r="7.01"/><circle class="cls-1" cx="41.35" cy="150.01" r="7.01"/><circle class="cls-1" cx="75.69" cy="150.01" r="7.01"/><circle class="cls-1" cx="110.04" cy="150.01" r="7.01"/><circle class="cls-1" cx="7.01" cy="178.69" r="7.01"/><circle class="cls-1" cx="41.35" cy="178.69" r="7.01"/><circle class="cls-1" cx="75.69" cy="178.69" r="7.01"/><circle class="cls-1" cx="110.04" cy="178.69" r="7.01"/><circle class="cls-1" cx="7.01" cy="207.37" r="7.01"/><circle class="cls-1" cx="41.35" cy="207.37" r="7.01"/><circle class="cls-1" cx="75.69" cy="207.37" r="7.01"/><circle class="cls-1" cx="110.04" cy="207.37" r="7.01"/></g></g></svg>