<svg xmlns="http://www.w3.org/2000/svg" xmlns:xlink="http://www.w3.org/1999/xlink" viewBox="0 0 267.77 63.32"><defs><style>.cls-1{fill:none;}.cls-2{fill:#2f2f2e;}.cls-3{clip-path:url(#clip-path);}.cls-4{fill:#ba2833;}</style><clipPath id="clip-path" transform="translate(0 0)"><rect class="cls-1" width="267.77" height="63.32"/></clipPath></defs><title>Asset 11</title><g id="Layer_2" data-name="Layer 2"><g id="Homepage_Long" data-name="Homepage Long"><polyline class="cls-2" points="77.63 21.51 94.84 21.51 77.07 42.46 77.07 44.99 100.26 44.99 100.26 41.62 82.4 41.62 100.26 20.67 100.26 18.14 77.63 18.14"/><path class="cls-2" d="M129.72,31.71a12,12,0,0,1-.74,4A10.86,10.86,0,0,1,126.92,39a7.84,7.84,0,0,1-3.09,2.15,9.82,9.82,0,0,1-8,0A9.05,9.05,0,0,1,112.7,39a10.21,10.21,0,0,1-2.06-3.37,11.49,11.49,0,0,1-.74-4v-.09a12.1,12.1,0,0,1,.74-4.12,10.73,10.73,0,0,1,2-3.27,9.39,9.39,0,0,1,3.09-2.24,9.72,9.72,0,0,1,8,0,11.1,11.1,0,0,1,3.18,2.24A11.6,11.6,0,0,1,129,27.5a12.08,12.08,0,0,1,.74,4.11v.1Zm.1-10a13.36,13.36,0,0,0-4.4-3.09,15.8,15.8,0,0,0-5.61-1,15.43,15.43,0,0,0-5.61,1,13.74,13.74,0,0,0-4.49,3.09,16,16,0,0,0-2.9,4.49,14.81,14.81,0,0,0-1,5.42v.1a14.74,14.74,0,0,0,1,5.33,16.1,16.1,0,0,0,2.9,4.49,15.19,15.19,0,0,0,4.49,3,13.19,13.19,0,0,0,5.52,1.12,14.3,14.3,0,0,0,5.61-1.12,14.88,14.88,0,0,0,4.49-3.09,13.81,13.81,0,0,0,2.9-4.49,12.86,12.86,0,0,0,1-5.33v-.09a13.08,13.08,0,0,0-1-5.43,11.66,11.66,0,0,0-2.9-4.39" transform="translate(0 0)"/><path class="cls-2" d="M171.72,17.58a11.42,11.42,0,0,0-3.18.38A10.22,10.22,0,0,0,166,19.08a9.45,9.45,0,0,0-2,1.78,11.58,11.58,0,0,0-1.69,2.05,10.45,10.45,0,0,0-3.18-3.83,9,9,0,0,0-5.42-1.5,9.7,9.7,0,0,0-3,.38,8.75,8.75,0,0,0-2.34,1.12,10.51,10.51,0,0,0-1.87,1.59c-.56.65-1,1.31-1.5,2V18.14H141V45H145V29.65a9.89,9.89,0,0,1,.56-3.37,10.51,10.51,0,0,1,1.59-2.62,6.28,6.28,0,0,1,2.43-1.77,6,6,0,0,1,2.9-.66,6.6,6.6,0,0,1,5.05,2.06c1.31,1.4,1.87,3.37,1.87,5.89V45h3.93V29.56A8.6,8.6,0,0,1,164,26a8,8,0,0,1,1.59-2.62,6.5,6.5,0,0,1,2.33-1.59,7.75,7.75,0,0,1,2.9-.56,6.59,6.59,0,0,1,5.05,2.06c1.31,1.4,1.88,3.46,1.88,6.08V45h4V28.34a11.79,11.79,0,0,0-2.62-7.95,9.67,9.67,0,0,0-7.39-2.81" transform="translate(0 0)"/><path class="cls-2" d="M208.1,35.07a6.44,6.44,0,0,1-.75,3,6.81,6.81,0,0,1-1.87,2.24,10.06,10.06,0,0,1-2.8,1.5,14.15,14.15,0,0,1-3.46.47,8.07,8.07,0,0,1-2.62-.38,6.46,6.46,0,0,1-2.15-1A4.81,4.81,0,0,1,193,39.19a4.5,4.5,0,0,1-.56-2.25v-.09a4.65,4.65,0,0,1,2.06-3.93,9.93,9.93,0,0,1,5.71-1.4,29.24,29.24,0,0,1,4.39.28c1.31.28,2.43.56,3.46.84v2.43Zm-7.57-17.39a17.77,17.77,0,0,0-5.24.65A37.36,37.36,0,0,0,190.71,20l1.21,3.27a31.22,31.22,0,0,1,3.84-1.4,20.22,20.22,0,0,1,4.3-.47A8.68,8.68,0,0,1,206,23.2,6.84,6.84,0,0,1,208,28.62v.84a26.69,26.69,0,0,0-3.65-.84,31.65,31.65,0,0,0-4.49-.28,18,18,0,0,0-4.68.56,11,11,0,0,0-3.64,1.68,6.6,6.6,0,0,0-2.34,2.72,8,8,0,0,0-.84,3.83v.1a8,8,0,0,0,.84,3.64,8.64,8.64,0,0,0,2.24,2.62,11.62,11.62,0,0,0,3.28,1.59,16.23,16.23,0,0,0,3.65.47,11.51,11.51,0,0,0,5.89-1.4A11.67,11.67,0,0,0,208,41v4h4V28.53q0-5.05-2.81-7.86c-2.05-2-4.86-3-8.69-3" transform="translate(0 0)"/><g class="cls-3"><path class="cls-2" d="M225.87,10h-4v8.13h-3.74v3.47h3.74V37.88a9.69,9.69,0,0,0,.56,3.46A5.54,5.54,0,0,0,224,43.68a5.84,5.84,0,0,0,2.43,1.4,10.6,10.6,0,0,0,3,.38,11.12,11.12,0,0,0,2.62-.29,10.41,10.41,0,0,0,2.24-.84V40.87a11.07,11.07,0,0,1-3.93.94,5.28,5.28,0,0,1-3.27-1c-.84-.66-1.22-1.78-1.22-3.46V21.61h8.51V18.14h-8.51" transform="translate(0 0)"/><path class="cls-2" d="M263.66,31.71a11.74,11.74,0,0,1-.75,4A10.59,10.59,0,0,1,261,39a9.05,9.05,0,0,1-3.18,2.15,9.44,9.44,0,0,1-4,.84,9.23,9.23,0,0,1-3.92-.84A7.84,7.84,0,0,1,246.73,39a10.24,10.24,0,0,1-2.15-3.37,11.27,11.27,0,0,1-.75-4v-.09a11.86,11.86,0,0,1,.75-4.12,10.78,10.78,0,0,1,2.06-3.27,9.45,9.45,0,0,1,3.08-2.24,9.72,9.72,0,0,1,8,0,9.39,9.39,0,0,1,3.09,2.24,10,10,0,0,1,2.15,3.37,11.85,11.85,0,0,1,.75,4.11v.1Zm3.08-5.62a14.26,14.26,0,0,0-2.89-4.39,15,15,0,0,0-4.49-3.09,15.53,15.53,0,0,0-5.62-1,16.27,16.27,0,0,0-5.61,1,13.32,13.32,0,0,0-4.39,3.09,12.66,12.66,0,0,0-2.9,4.49,13,13,0,0,0-1,5.42v.1a12.89,12.89,0,0,0,1,5.33,12.75,12.75,0,0,0,2.9,4.49,14.7,14.7,0,0,0,4.39,3,14.38,14.38,0,0,0,11.13,0,12.86,12.86,0,0,0,4.49-3.09,12.23,12.23,0,0,0,2.9-4.49,12.94,12.94,0,0,0,1.12-5.33v-.09a14.7,14.7,0,0,0-1-5.43" transform="translate(0 0)"/></g><path class="cls-4" d="M31.52,22.35a14.85,14.85,0,0,0-3.84.47,16.92,16.92,0,0,0-3.08,1.12.79.79,0,0,0-.38.56.64.64,0,0,0,.66.66h.28a.09.09,0,0,1,.09-.09,15.14,15.14,0,0,1,7-1.87,42.79,42.79,0,0,1,7.76.46,36.66,36.66,0,0,0-8.51-1.31" transform="translate(0 0)"/><path class="cls-4" d="M31.52,22.35a14.85,14.85,0,0,0-3.84.47,16.92,16.92,0,0,0-3.08,1.12.79.79,0,0,0-.38.56.64.64,0,0,0,.66.66h.28a.09.09,0,0,1,.09-.09,15.14,15.14,0,0,1,7-1.87,42.79,42.79,0,0,1,7.76.46,36.66,36.66,0,0,0-8.51-1.31" transform="translate(0 0)"/><path class="cls-4" d="M54.9,0H8.42A8.44,8.44,0,0,0,0,8.42V29.84c7.58.37,9.26.18,11.6-.1S17,26,17,26s2.9-4.39,9.82-6.26,15.81,1.4,15.81,1.4c10.85,3.83,11,10.29,11,10.29V32s-.19,6.36-11,10.19c0,0-9,3.37-15.81,1.5S17,37.32,17,37.32s-3.08-3.46-5.42-3.74-4-.47-11.6-.1V54.9a8.38,8.38,0,0,0,8.42,8.42H54.9a8.38,8.38,0,0,0,8.42-8.42V8.42A8.44,8.44,0,0,0,54.9,0" transform="translate(0 0)"/></g></g></svg>